<?xml version="1.0" standalone="no"?>
<!DOCTYPE svg PUBLIC "-//W3C//DTD SVG 20010904//EN"
 "http://www.w3.org/TR/2001/REC-SVG-20010904/DTD/svg10.dtd">
<svg version="1.0" xmlns="http://www.w3.org/2000/svg"
 width="1024.000000pt" height="922.000000pt" viewBox="0 0 1024.000000 922.000000"
 preserveAspectRatio="xMidYMid meet">

<g transform="translate(0.000000,922.000000) scale(0.100000,-0.100000)"
fill="#000000" stroke="none">
<path d="M4590 7994 c-139 -22 -161 -30 -206 -73 -30 -28 -55 -42 -92 -50 -29
-6 -87 -27 -129 -47 -43 -19 -109 -50 -148 -67 -38 -17 -89 -44 -111 -59 -43
-29 -129 -130 -159 -189 -10 -19 -46 -77 -80 -129 -34 -52 -72 -112 -84 -133
-13 -20 -32 -44 -44 -52 -30 -21 -9 -40 41 -37 20 2 45 -3 55 -10 15 -12 15
-16 1 -58 -17 -49 -11 -72 38 -133 l23 -28 -29 -52 c-70 -125 -126 -240 -126
-260 1 -12 7 -38 14 -57 8 -19 27 -71 43 -115 16 -44 48 -111 71 -149 23 -39
42 -81 43 -95 0 -14 3 -20 6 -13 2 6 9 12 14 12 5 0 2 -16 -6 -36 -8 -20 -15
-55 -14 -78 1 -35 2 -37 9 -16 6 17 8 2 9 -52 1 -45 5 -78 11 -78 6 0 10 4 10
10 0 20 62 110 76 110 17 0 48 -66 38 -81 -3 -5 -14 -7 -24 -4 -22 7 -50 -28
-50 -62 0 -12 -4 -24 -9 -27 -13 -8 -21 -115 -11 -142 7 -17 17 -24 35 -24 17
0 38 -13 61 -37 31 -32 34 -40 25 -61 -8 -16 -8 -29 -1 -43 6 -11 10 -41 8
-67 l-3 -47 -42 -3 c-82 -6 -57 -53 32 -60 58 -5 57 -4 70 -72 9 -46 87 -237
132 -322 40 -77 55 -130 47 -174 -4 -24 -17 -36 -63 -62 -79 -43 -116 -74
-199 -167 -126 -139 -162 -184 -162 -198 0 -5 -18 -35 -40 -66 -22 -31 -59
-84 -81 -119 -42 -64 -49 -71 -133 -125 -50 -32 -77 -67 -41 -53 13 5 16 2 11
-10 -4 -10 -1 -14 6 -12 7 3 15 15 18 28 3 13 11 25 18 28 18 6 -7 -60 -30
-76 -22 -16 -16 -32 10 -25 12 3 18 -2 19 -17 1 -16 -2 -20 -18 -15 -10 4 -19
2 -19 -3 0 -6 -9 -8 -19 -5 -13 3 -21 -2 -26 -16 -9 -30 -28 -26 -23 4 6 30
-5 32 -42 5 -42 -30 -122 -42 -193 -29 -42 7 -63 7 -70 0 -6 -6 -17 -11 -25
-11 -8 0 -40 -16 -71 -35 -46 -29 -73 -38 -132 -44 -50 -5 -76 -5 -81 3 -9 14
-22 1 -13 -13 3 -6 12 -11 19 -11 12 0 42 -67 34 -76 -3 -2 -13 5 -23 16 -25
27 -56 27 -52 -1 2 -18 -10 -25 -78 -49 -44 -15 -95 -33 -113 -40 -26 -10 -36
-10 -47 0 -19 16 -19 30 -1 30 7 0 20 7 27 17 13 15 12 15 -9 4 -26 -14 -45
-5 -22 9 8 6 10 10 4 10 -5 0 -14 -4 -20 -9 -5 -5 -26 -14 -46 -21 -21 -6 -38
-18 -38 -26 0 -18 10 -17 34 1 11 8 27 15 35 14 14 0 14 -1 1 -6 -8 -3 -25
-15 -38 -26 -21 -19 -23 -20 -35 -3 -11 15 -14 15 -32 1 -20 -16 -20 -16 0
-13 11 2 25 -3 31 -11 9 -12 16 -10 43 10 24 18 36 21 48 13 30 -19 24 -30
-19 -40 -38 -8 -43 -12 -40 -34 2 -14 38 -61 84 -110 98 -105 105 -113 131
-158 11 -20 40 -55 63 -77 33 -31 119 -162 152 -230 17 -35 -109 119 -233 285
-60 80 -129 168 -155 195 -25 28 -59 66 -75 87 -22 26 -39 37 -64 40 -46 4
-51 -17 -7 -32 23 -7 53 -34 93 -81 75 -90 79 -104 12 -40 -33 31 -75 59 -109
72 -30 11 -58 26 -62 32 -6 9 -12 9 -25 -1 -10 -6 -25 -15 -33 -19 -8 -4 -28
-20 -45 -36 -33 -32 -35 -32 67 -2 42 13 60 15 70 6 7 -6 30 -25 52 -41 27
-21 33 -30 21 -30 -10 0 -27 8 -38 18 -11 9 -17 11 -13 5 9 -16 -6 -17 -22 -1
-6 6 -15 9 -18 5 -10 -10 62 -38 106 -42 42 -4 124 -54 192 -117 44 -41 33
-44 -15 -4 -87 71 -298 156 -388 156 -30 0 -43 -7 -73 -40 -39 -43 -53 -89
-18 -57 33 30 34 18 2 -15 -41 -43 -61 -81 -50 -97 15 -26 67 18 95 81 14 32
31 58 38 59 63 5 110 -10 138 -45 17 -21 11 -51 -15 -68 -12 -8 34 -28 84 -35
19 -3 49 -11 65 -18 17 -7 62 -23 100 -36 39 -12 77 -26 85 -30 8 -5 24 -13
35 -18 21 -9 63 -51 51 -51 -4 0 -25 9 -47 21 -42 21 -69 20 -29 -1 12 -6 20
-14 17 -16 -2 -3 -20 4 -39 16 -73 42 -217 98 -273 105 -77 10 -66 -6 23 -35
66 -21 122 -46 277 -122 79 -39 109 -63 99 -79 -5 -9 -74 15 -111 39 -13 8
-23 10 -23 4 0 -15 21 -28 73 -43 26 -7 47 -17 47 -21 0 -12 -48 -10 -55 2 -3
6 -14 10 -23 9 -13 0 -12 -3 6 -11 12 -6 22 -15 22 -20 0 -4 9 -8 19 -8 25 0
30 -8 32 -56 1 -21 7 -45 12 -51 16 -21 -6 -15 -88 22 -92 42 -260 99 -333
114 -63 13 -202 15 -202 2 0 -4 40 -14 89 -20 166 -21 370 -95 540 -196 127
-76 132 -87 14 -30 -123 60 -213 98 -213 89 0 -3 42 -25 93 -49 105 -49 193
-101 222 -130 11 -11 34 -31 50 -43 l30 -24 -35 22 c-123 76 -289 138 -525
196 -199 49 -241 56 -325 55 -102 -1 -130 -6 -192 -37 -89 -45 -119 -117 -124
-294 -3 -127 -7 -145 -55 -240 -25 -48 -43 -100 -49 -143 -9 -60 -8 -72 10
-109 12 -24 16 -46 11 -51 -5 -5 -3 -27 4 -51 18 -59 20 -287 6 -567 -16 -315
-6 -415 71 -724 23 -95 23 -85 13 -208 -5 -65 -4 -105 3 -120 35 -72 112 -249
112 -257 0 -6 262 -10 679 -10 l678 0 15 42 c9 24 21 63 28 88 8 25 17 49 22
54 4 6 8 19 8 31 0 28 52 187 84 258 15 31 38 100 52 154 32 124 57 153 136
161 l53 5 -35 13 c-45 16 -50 16 -50 2 -1 -14 -62 -48 -85 -48 -8 0 -15 -7
-15 -16 0 -8 -5 -12 -11 -9 -6 4 -8 13 -5 21 7 18 -18 18 -37 0 -11 -11 -17
-12 -27 -3 -10 9 -14 9 -17 0 -3 -7 -9 -13 -14 -13 -6 0 -8 4 -4 9 3 5 1 12
-4 16 -6 3 -15 -3 -21 -14 -6 -12 -16 -18 -25 -15 -8 4 -15 1 -15 -5 0 -6 5
-11 10 -11 6 0 10 -11 10 -25 0 -14 3 -25 8 -25 13 0 41 38 34 47 -4 4 3 0 15
-11 12 -10 27 -15 32 -11 6 3 11 -1 11 -9 0 -9 8 -16 18 -17 10 0 12 -3 4 -6
-6 -2 -10 -9 -7 -14 4 -5 -2 -6 -12 -2 -16 6 -16 5 -4 -10 8 -10 12 -20 9 -22
-3 -3 -11 1 -18 10 -10 12 -10 18 0 30 8 9 8 15 2 15 -6 0 -18 7 -27 16 -15
15 -15 14 -9 -12 7 -26 6 -28 -9 -15 -14 11 -20 11 -33 1 -13 -11 -16 -10 -21
9 -4 17 -11 22 -29 18 -20 -3 -22 -1 -13 14 7 15 6 19 -6 19 -8 0 -23 -16 -32
-35 -9 -19 -19 -35 -22 -35 -22 -1 -31 -18 -22 -43 9 -23 8 -27 -8 -27 -11 0
-21 -6 -24 -12 -2 -7 -8 -9 -13 -5 -5 5 -1 13 9 18 29 17 19 27 -22 22 -38 -5
-39 -5 -33 23 3 16 10 32 16 36 6 4 -1 8 -16 8 -23 0 -28 -4 -28 -26 0 -14 -4
-23 -10 -19 -6 4 -10 -5 -10 -19 0 -14 -4 -26 -10 -26 -5 0 -10 3 -10 8 0 16
-41 33 -58 23 -9 -5 -16 -12 -14 -15 5 -14 1 -26 -9 -26 -6 0 -9 7 -5 15 3 9
0 15 -8 15 -8 0 -15 14 -18 35 -3 23 0 35 8 35 6 0 14 11 16 25 3 13 1 22 -3
19 -5 -3 -9 0 -9 5 0 6 -5 11 -12 11 -9 0 -9 -3 0 -12 17 -17 15 -31 -3 -24
-16 6 -20 -8 -16 -56 1 -16 -2 -28 -8 -28 -5 0 -7 -15 -5 -32 9 -64 10 -138 2
-138 -5 0 -6 5 -3 10 3 6 2 10 -4 10 -6 0 -10 17 -10 38 0 20 -2 61 -5 89 -2
29 0 55 5 58 12 8 12 45 -1 45 -6 0 -4 15 5 37 17 39 14 49 -9 40 -9 -4 -19
-24 -22 -47 -4 -22 -11 -40 -16 -40 -5 0 -7 8 -4 18 3 9 2 31 -3 47 -9 27 -9
26 -10 -20 0 -27 4 -79 10 -115 11 -67 20 -275 12 -267 -2 3 -11 31 -20 63
-10 41 -11 60 -4 62 16 5 13 42 -3 48 -8 3 -15 13 -15 22 1 14 -2 30 -10 81
-1 2 -10 -6 -20 -18 l-19 -22 2 36 c3 27 0 35 -10 31 -8 -3 -14 -1 -14 3 0 5
5 11 12 13 6 2 8 10 4 16 -4 7 -12 10 -17 7 -12 -8 -12 -48 1 -61 6 -6 7 -19
3 -31 -6 -15 -13 -18 -28 -12 -11 4 -14 8 -7 8 9 1 10 6 2 20 -5 11 -10 29
-10 40 0 12 -4 21 -10 21 -6 0 -7 -18 -3 -45 4 -35 3 -45 -9 -45 -8 0 -19 5
-24 10 -17 17 -16 -61 1 -87 9 -13 11 -23 5 -23 -5 0 -10 -4 -10 -9 0 -5 12
-8 28 -6 34 4 43 -1 36 -20 -5 -13 -9 -13 -27 0 -20 14 -23 13 -40 -7 -18 -23
-18 -21 -14 87 3 93 8 119 30 168 15 32 27 62 27 67 0 18 33 27 74 19 23 -4
45 -3 51 2 13 13 66 10 94 -5 18 -10 32 -11 57 -3 26 8 43 7 75 -6 37 -15 43
-15 77 1 20 9 45 27 55 39 10 13 25 23 32 23 7 0 23 12 35 27 l21 28 -27 7
c-20 5 -31 3 -39 -9 -15 -20 -66 -10 -91 18 -9 10 -25 19 -35 19 -10 0 -31 19
-48 43 -16 23 -48 60 -70 82 -44 42 -50 55 -26 55 8 0 19 9 26 21 10 20 9 21
-19 15 -38 -9 -108 36 -185 120 -47 51 -57 68 -57 97 0 52 16 86 46 97 42 16
100 -27 302 -229 202 -201 264 -276 307 -370 16 -34 35 -61 42 -61 30 0 -19
104 -98 208 -107 140 -120 164 -103 183 15 17 19 39 6 39 -5 0 -20 10 -33 21
-49 43 -70 54 -79 39 -7 -11 -11 -11 -22 1 -8 8 -27 23 -42 34 -113 81 -159
120 -178 149 -12 19 -31 40 -43 47 -121 77 -196 119 -212 119 -22 0 -58 35
-67 67 -7 23 14 86 33 98 7 3 25 10 41 15 25 7 37 3 82 -30 29 -20 82 -53 118
-72 36 -19 110 -59 165 -88 201 -107 380 -261 469 -403 26 -43 51 -76 54 -73
12 12 -123 231 -167 270 -11 10 -18 23 -15 27 3 5 -2 12 -11 15 -12 5 -13 9
-5 14 7 4 -3 14 -25 24 -120 57 -337 209 -329 230 6 14 -51 36 -94 36 -18 0
-41 5 -52 10 -11 6 -29 15 -40 20 -11 6 -31 10 -45 10 -28 0 -85 26 -97 44 -4
6 -8 30 -8 54 0 32 6 49 25 67 29 30 53 31 120 6 28 -10 77 -28 110 -40 33
-11 81 -32 106 -46 26 -14 75 -34 110 -45 35 -10 107 -44 159 -75 52 -30 83
-45 69 -32 -15 13 -33 37 -40 52 -11 22 -30 35 -84 55 -38 14 -86 33 -105 42
-19 9 -48 19 -63 23 -40 8 -74 46 -83 90 -9 50 8 85 42 85 37 0 241 -102 349
-174 119 -79 285 -248 310 -313 10 -27 33 -79 52 -118 18 -38 47 -114 63 -170
49 -170 113 -335 173 -447 54 -100 60 -108 95 -115 61 -13 768 -10 837 4 33 7
102 19 153 28 52 8 141 27 199 40 58 14 137 28 176 31 40 3 110 14 157 24 47
11 181 38 298 60 226 43 237 44 592 42 l206 -2 31 -32 c91 -97 145 -286 122
-428 -12 -76 -27 -109 -40 -89 -5 8 -9 24 -9 37 0 12 -5 22 -11 22 -7 0 -8
-23 -4 -68 8 -80 1 -90 -68 -97 -26 -2 -58 -12 -71 -20 -17 -11 -33 -14 -48
-9 -13 4 -52 8 -88 10 -36 1 -81 5 -100 8 -19 3 -59 1 -88 -6 -40 -9 -55 -9
-61 0 -10 17 -93 11 -98 -8 -4 -15 -33 -31 -83 -45 -14 -4 -49 -19 -79 -33
-48 -22 -55 -23 -63 -8 -5 9 -14 16 -20 16 -7 0 -7 -4 1 -13 8 -11 3 -16 -24
-27 -21 -8 -35 -21 -35 -31 0 -9 -7 -19 -15 -23 -8 -3 -15 -12 -15 -21 0 -8
-7 -15 -15 -15 -8 0 -15 -4 -15 -9 0 -12 -57 -34 -69 -26 -6 3 -11 1 -11 -4 0
-6 6 -11 13 -11 6 0 4 -5 -5 -11 -10 -5 -18 -14 -18 -19 0 -6 114 -10 293 -10
l292 0 40 33 c22 18 60 52 85 76 55 53 77 64 165 84 165 38 189 35 255 -35 31
-32 34 -44 31 -116 l-2 -42 97 0 96 0 -7 27 c-30 122 -47 233 -48 324 -1 80
-5 103 -13 95 -7 -6 -12 -13 -12 -16 0 -3 0 -15 -1 -28 -1 -21 -3 -22 -16 -8
-19 18 -19 27 -1 61 8 15 12 34 9 41 -3 8 0 22 7 32 7 9 -3 1 -21 -19 -19 -19
-39 -44 -45 -55 -9 -15 -10 -6 -6 41 4 56 3 59 -12 40 -14 -19 -15 -17 -16 33
0 77 -27 187 -65 267 -33 69 -109 161 -152 184 -13 6 -23 18 -23 27 0 31 31
25 87 -20 54 -42 64 -46 147 -56 133 -16 143 -23 171 -102 13 -38 27 -89 30
-115 4 -27 14 -86 22 -133 8 -47 18 -98 20 -115 3 -16 9 -35 14 -40 4 -6 4
-17 0 -24 -6 -9 -11 -10 -15 -2 -13 20 -25 12 -46 -29 -23 -45 -25 -107 -10
-245 15 -127 26 -165 50 -165 17 0 20 7 20 50 0 28 4 50 9 50 5 0 9 -21 8 -47
l-2 -48 58 -3 58 -3 -41 78 c-40 77 -70 128 -102 174 -9 13 -19 52 -23 87 -7
58 -6 62 13 62 13 0 23 -9 27 -22 19 -66 109 -255 128 -268 34 -24 62 -53 82
-82 15 -25 23 -28 71 -28 54 0 64 6 42 28 -24 24 1 22 30 -3 23 -20 41 -25 81
-25 28 0 51 4 51 8 0 13 -128 123 -192 164 -43 28 -70 56 -102 106 -56 86 -67
95 -104 87 -21 -4 -31 -2 -35 9 -7 17 1 24 44 36 26 8 34 5 53 -15 12 -13 28
-36 36 -52 12 -23 34 -55 87 -123 2 -2 8 2 13 10 8 12 10 11 10 -6 0 -20 60
-84 78 -84 4 0 40 -32 80 -70 l73 -70 400 0 c287 0 399 3 399 11 0 23 -118
246 -158 299 -23 30 -45 70 -48 88 -4 19 -17 40 -30 49 -35 22 -32 44 4 31 21
-9 38 -34 76 -111 27 -54 57 -107 66 -116 9 -9 32 -51 50 -94 30 -70 35 -76
43 -55 12 31 1 115 -18 144 -21 32 -8 30 27 -3 15 -14 31 -24 34 -20 4 3 9 39
12 79 2 40 8 78 13 83 4 6 9 47 10 92 3 71 0 87 -18 111 l-22 29 24 13 c19 10
22 19 19 48 -1 20 2 39 8 43 7 5 6 17 -5 38 -14 28 -14 31 0 31 12 0 14 7 9
32 -3 18 -9 50 -12 70 -7 38 -43 88 -64 88 -6 0 -5 -12 5 -30 9 -16 11 -30 6
-30 -5 0 -12 6 -14 13 -11 25 -7 -31 4 -62 6 -17 8 -39 3 -49 -4 -9 -6 -23 -5
-31 1 -7 0 -25 -4 -40 -6 -23 -8 -24 -16 -8 -6 9 -19 17 -29 17 -10 0 -22 4
-25 10 -3 6 1 7 9 4 19 -7 20 5 2 29 -12 15 -15 15 -25 3 -9 -11 -9 -20 -2
-34 7 -13 7 -22 -2 -31 -14 -14 3 -28 46 -38 16 -3 31 -13 34 -22 2 -9 8 -23
13 -32 5 -9 6 -26 3 -38 -8 -32 -38 -18 -101 45 -30 30 -60 54 -68 54 -9 0
-12 -4 -9 -10 11 -17 -44 -22 -142 -12 -54 5 -127 9 -163 7 -36 -2 -77 -4 -91
-4 -33 -1 -58 -20 -64 -49 -3 -19 -1 -22 15 -17 11 3 30 1 42 -6 21 -11 98
-84 98 -93 0 -10 -46 -14 -57 -4 -7 6 -13 7 -13 2 0 -5 -7 0 -15 10 -8 11 -15
15 -15 9 0 -5 9 -20 20 -33 11 -12 17 -27 14 -32 -3 -4 41 -57 98 -117 57 -60
109 -123 115 -142 14 -37 10 -34 -42 36 -41 55 -100 107 -183 162 -29 19 -57
43 -62 53 -9 16 -57 55 -147 119 -18 13 -68 37 -111 53 -74 28 -75 28 -30 24
26 -3 82 -22 125 -42 l77 -37 29 34 c20 24 27 42 24 61 -3 24 0 28 28 34 17 3
97 4 178 2 94 -2 147 1 147 7 0 6 4 5 8 -2 9 -15 59 -5 66 13 9 23 -75 54
-147 54 -34 0 -80 5 -102 10 -22 6 -65 12 -95 15 -64 6 -84 21 -75 58 6 23 11
26 34 20 14 -4 34 -7 44 -7 9 0 17 -4 17 -8 0 -4 8 -8 18 -9 11 0 7 -5 -13
-14 -16 -8 -25 -15 -20 -16 42 -7 55 -5 55 10 0 12 6 9 20 -9 11 -14 20 -19
20 -12 0 13 50 17 50 4 0 -4 8 -8 18 -8 70 -2 202 -38 202 -56 0 -6 10 -8 25
-4 18 5 25 2 25 -8 0 -18 16 -29 30 -21 5 3 -1 25 -16 50 -13 25 -24 48 -23
52 0 4 -5 9 -12 12 -8 2 -10 -2 -6 -13 10 -25 0 -19 -47 27 -24 23 -55 48 -69
56 -25 13 -25 15 -9 36 20 28 28 25 12 -4 -8 -17 -8 -21 4 -21 8 0 17 6 19 13
3 7 6 5 6 -5 1 -21 5 -22 32 -7 21 11 59 4 59 -12 0 -5 -7 -9 -16 -9 -8 0 -12
-4 -9 -10 10 -16 33 -11 38 8 2 9 -3 25 -11 35 -14 15 -13 17 2 17 9 0 14 4
11 10 -4 6 -13 5 -24 -2 -11 -6 -26 -8 -37 -3 -13 5 -15 9 -6 12 6 3 12 13 12
24 0 11 7 19 17 19 12 0 14 3 7 10 -15 15 -165 14 -174 -1 -5 -6 -15 -9 -24
-6 -10 4 -16 1 -16 -8 0 -8 -4 -15 -10 -15 -5 0 -10 4 -10 9 0 5 -7 12 -16 15
-8 3 -12 2 -9 -4 3 -6 -1 -10 -9 -10 -8 0 -18 5 -21 10 -4 6 -16 8 -28 4 -11
-4 -45 -6 -74 -6 -43 0 -53 -3 -51 -15 2 -9 -3 -18 -9 -20 -7 -3 -13 2 -13 11
0 9 -7 16 -16 16 -11 0 -14 6 -8 23 6 20 5 20 -15 -5 -11 -14 -21 -30 -21 -35
0 -4 -7 -17 -16 -28 -13 -18 -14 -17 -9 20 2 21 9 41 15 45 6 4 8 14 5 22 -5
13 5 19 50 29 31 7 62 20 69 30 6 10 24 21 39 24 15 4 25 11 22 16 -3 4 10 11
29 15 83 15 151 53 99 55 -14 0 -12 3 7 10 31 13 130 20 130 9 0 -4 11 -5 26
-2 19 3 24 10 22 26 -2 16 -11 21 -36 23 -17 1 -30 -3 -27 -7 3 -5 1 -11 -4
-15 -11 -6 -43 37 -39 53 2 5 -1 10 -7 10 -5 0 -9 -4 -8 -8 3 -12 -40 1 -59
18 -13 11 -18 12 -18 3 0 -15 -40 -50 -56 -51 -12 0 -98 -53 -139 -85 -34 -27
-77 -45 -88 -38 -5 3 -15 -1 -21 -9 -13 -16 -41 -29 -75 -34 l-24 -3 22 20
c25 23 27 49 6 88 -17 34 -14 37 62 69 58 25 112 28 132 10 10 -11 16 -9 28
10 12 17 25 22 59 22 23 0 46 5 49 10 3 5 -1 10 -9 10 -9 0 -16 5 -16 11 0 27
385 -34 441 -69 96 -60 116 -62 57 -4 -33 31 -51 37 -228 83 -94 24 -331 37
-380 21 -19 -6 -80 -18 -135 -26 -88 -13 -101 -13 -108 0 -4 8 -13 11 -20 7
-13 -8 -57 -11 -74 -5 -26 9 -12 19 27 18 35 -1 40 2 46 26 3 16 10 28 15 28
5 0 9 7 9 15 0 8 4 15 9 15 6 0 6 -12 -1 -31 -11 -33 -5 -47 14 -31 7 5 29 14
48 20 19 5 44 13 55 18 18 7 18 6 6 -9 -16 -20 -3 -22 24 -3 16 10 52 12 180
6 88 -5 181 -11 208 -15 32 -5 47 -4 47 4 0 6 -14 11 -31 11 -18 0 -28 4 -24
10 4 6 14 9 23 6 10 -3 35 -6 57 -7 22 -1 53 -6 68 -11 31 -12 40 -8 32 14 -5
11 -28 18 -83 23 -108 10 -300 8 -342 -5 -46 -13 -53 -13 -46 5 3 9 0 15 -9
15 -8 0 -19 9 -25 20 -9 16 -6 22 20 35 16 8 30 22 30 29 0 13 24 25 65 31 11
1 45 8 75 14 86 18 352 1 403 -26 37 -19 43 -12 21 22 -17 25 -17 28 -1 37 9
5 17 18 17 29 0 11 5 17 10 14 6 -4 10 6 10 23 0 33 -13 42 -68 43 l-37 1 32
14 c18 7 36 22 41 31 11 20 4 80 -9 89 -5 3 -9 23 -9 44 0 21 -5 40 -11 42 -7
2 -12 32 -13 74 -1 38 -6 77 -12 84 -5 8 -10 27 -11 43 -2 15 -4 38 -5 52 -4
32 -29 38 -147 29 -76 -5 -94 -4 -84 6 10 11 118 28 181 30 40 0 14 17 -38 24
-34 5 -58 2 -77 -7 -16 -8 -55 -17 -88 -20 l-60 -6 51 24 c29 14 77 30 109 36
84 15 105 25 105 50 0 19 -4 20 -42 14 -69 -10 -396 -92 -478 -119 -41 -14
-140 -48 -219 -76 -79 -28 -148 -49 -154 -47 -35 11 231 112 458 172 308 81
418 118 385 128 -43 14 -61 14 -69 0 -4 -8 -22 -16 -39 -17 -17 -1 -34 -4 -37
-8 -4 -4 -15 -2 -25 4 -14 9 -22 9 -33 0 -16 -13 -148 -44 -156 -37 -2 3 1 5
7 5 7 0 12 7 12 15 0 8 7 15 15 15 8 0 15 4 15 9 0 5 17 11 38 15 21 3 73 17
116 31 42 14 85 25 96 25 11 0 20 5 20 11 0 28 -289 -30 -464 -92 -111 -40
-138 -46 -120 -30 15 14 117 50 277 97 156 47 264 93 217 93 -58 1 -164 -18
-172 -31 -7 -10 -11 -10 -15 0 -7 17 -24 15 -17 -2 3 -8 -4 -16 -18 -19 -13
-4 -24 -2 -26 3 -2 6 -8 10 -14 10 -6 0 -8 -7 -4 -15 4 -10 -1 -15 -15 -15
-12 0 -62 -14 -113 -31 -50 -17 -98 -32 -106 -34 -8 -2 -24 -6 -35 -10 -38
-13 50 38 130 76 113 53 240 95 310 102 33 4 89 10 125 13 69 7 80 10 80 24 0
16 -45 23 -145 21 -86 -2 -114 -7 -200 -37 -55 -19 -106 -36 -112 -36 -7 -1
-13 -5 -13 -10 0 -4 -8 -8 -17 -8 -23 0 -9 12 52 43 110 57 173 85 179 80 3
-4 6 -2 6 4 0 6 13 15 28 21 28 9 29 12 25 67 -3 62 8 66 32 9 15 -36 27 -40
72 -23 25 9 26 11 10 20 -12 7 -16 17 -12 30 4 10 2 19 -3 19 -9 0 -68 119
-64 132 1 3 -5 12 -13 18 -8 7 -15 19 -15 26 0 8 -4 14 -10 14 -5 0 -7 6 -4
14 3 9 -7 24 -26 37 -17 13 -28 29 -26 36 3 7 1 15 -4 18 -6 4 -10 14 -10 24
0 10 -11 29 -24 42 -13 13 -27 35 -31 49 -4 14 -20 37 -36 52 -16 15 -29 33
-29 41 0 27 -28 41 -57 28 -30 -14 -41 -8 -23 14 10 13 9 15 -10 15 -17 0 -21
-4 -17 -20 3 -11 1 -23 -4 -26 -5 -3 -7 -10 -4 -15 3 -5 0 -6 -7 -4 -8 3 -47
-28 -92 -75 -43 -44 -80 -80 -82 -80 -8 0 12 38 45 88 75 111 101 157 100 172
-1 8 3 28 10 44 15 36 6 72 -14 56 -18 -15 -36 -4 -33 18 2 9 -4 18 -12 19 -9
2 -28 -19 -48 -51 -22 -36 -39 -53 -48 -49 -19 7 -20 2 18 79 15 30 15 33 -9
58 -13 14 -28 26 -33 26 -17 0 -25 -5 -22 -13 1 -5 -2 -6 -8 -2 -26 16 -49 -8
-69 -68 -44 -138 -78 -369 -51 -352 6 3 10 1 10 -4 0 -6 -4 -11 -9 -11 -6 0
-12 -21 -16 -47 -3 -27 -10 -64 -15 -83 -5 -19 -12 -55 -15 -80 -10 -80 -17
-110 -27 -110 -14 0 -1 260 14 277 5 7 8 19 5 27 -3 8 -1 16 4 18 5 2 12 50
14 108 2 58 7 113 11 124 5 14 3 17 -7 14 -8 -3 -14 -14 -14 -26 0 -12 -6 -27
-13 -34 -11 -11 -12 -8 -8 15 4 25 2 27 -30 27 -23 0 -34 5 -34 14 0 8 -6 17
-12 20 -7 2 14 3 47 2 81 -4 101 10 116 82 6 31 18 69 27 83 23 40 10 62 -30
54 -18 -4 -36 -12 -39 -17 -9 -14 -34 3 -34 21 0 10 -25 21 -75 34 -41 10 -79
22 -84 27 -5 5 -23 7 -40 4 -24 -4 -28 -3 -16 5 13 9 13 11 -2 11 -10 0 -18 4
-18 9 0 5 10 7 22 3 14 -3 19 -2 14 6 -4 7 -13 12 -21 12 -7 0 -15 5 -17 11
-2 6 -41 15 -87 19 -112 12 -118 23 -9 18 48 -2 85 -1 82 3 -2 4 -30 15 -62
24 -31 9 -82 29 -112 44 -30 15 -111 47 -180 71 -69 24 -126 47 -128 52 -2 4
-13 8 -24 8 -10 0 -39 14 -63 30 -24 17 -46 30 -49 30 -11 0 15 -65 36 -88 26
-27 97 -66 105 -58 3 3 0 12 -7 21 -15 18 -5 20 14 3 7 -7 11 -20 8 -30 -5
-22 17 -24 44 -3 26 20 29 19 64 -15 17 -17 39 -30 50 -30 17 0 37 -17 28 -25
-3 -4 -69 11 -171 39 -32 8 -74 25 -92 36 -21 13 -36 17 -40 10 -8 -13 -62
-13 -70 -1 -3 5 -1 12 5 16 11 7 3 26 -30 64 -25 29 -37 22 -19 -11 12 -23 12
-23 -9 -5 -11 10 -26 17 -34 16 -7 -1 -48 14 -90 34 -42 20 -88 39 -102 43
-14 3 -26 10 -26 15 0 5 12 6 26 3 24 -6 26 -5 19 17 -10 36 -27 69 -37 69
-11 0 -10 -14 2 -26 11 -11 3 -44 -11 -44 -9 0 -16 37 -22 127 -4 51 -16 82
-68 183 -38 74 -74 131 -92 144 -15 11 -38 36 -50 56 l-21 34 -8 -34 c-4 -19
-17 -102 -28 -184 -11 -81 -23 -152 -26 -157 -14 -24 -20 -4 -11 42 7 37 7 53
-2 62 -9 9 -13 6 -17 -11 -7 -26 -19 -29 -28 -6 -5 12 -14 14 -34 10 -25 -6
-23 -3 17 33 49 43 50 48 55 183 3 82 21 121 86 187 15 14 53 85 87 156 92
195 103 222 132 320 20 65 33 93 48 99 19 9 20 11 6 45 -12 28 -14 57 -9 131
7 91 9 97 42 130 36 38 43 60 19 60 -8 0 -15 -4 -15 -8 0 -5 -9 -19 -20 -32
l-20 -23 0 54 c1 41 3 50 11 37 9 -17 12 -17 34 -2 20 13 24 22 18 43 -9 38
-41 99 -54 103 -21 7 -4 137 25 181 25 38 40 34 20 -5 -12 -23 -13 -33 -5 -36
7 -2 17 -16 23 -31 l10 -26 10 25 c5 14 11 53 11 87 1 33 5 59 10 56 4 -2 8
-12 8 -21 3 -38 18 67 18 127 1 53 19 193 36 277 3 11 20 37 40 57 19 20 35
44 36 54 1 31 8 207 9 233 0 14 -13 52 -29 85 -21 42 -31 81 -35 130 -5 71
-19 108 -65 180 -14 22 -44 76 -66 120 -27 54 -59 97 -100 137 -62 61 -183
132 -213 126 -9 -2 -22 2 -28 10 -10 14 -91 44 -150 56 -74 16 -275 86 -343
120 -64 33 -89 39 -203 52 -71 8 -133 16 -137 19 -22 13 -215 12 -301 -1z
m1217 -741 c-9 -9 -20 -13 -24 -9 -4 4 -1 11 7 16 25 16 35 11 17 -7z m-1156
-183 c10 -6 19 -7 19 -2 0 5 11 10 24 10 17 0 23 -5 19 -14 -3 -8 0 -14 6 -14
6 0 11 5 11 10 0 13 37 13 45 -1 4 -6 12 -8 19 -6 6 3 24 -14 40 -37 46 -67
196 -156 264 -156 24 0 83 -10 131 -22 119 -31 297 -31 390 0 35 11 59 16 53
10 -8 -8 -6 -16 7 -27 9 -9 41 -59 71 -111 29 -52 68 -120 86 -151 48 -81 50
-89 86 -312 31 -188 33 -219 33 -442 0 -234 -1 -242 -27 -315 -14 -41 -26 -91
-26 -111 0 -38 -49 -139 -67 -139 -7 0 -18 -18 -25 -40 -16 -48 -33 -54 -19
-8 5 18 9 41 9 52 0 18 -1 19 -20 1 -11 -10 -20 -24 -20 -31 0 -6 -16 -36 -36
-65 -20 -30 -40 -64 -45 -77 -5 -13 -13 -20 -19 -17 -5 3 -10 0 -10 -7 -1 -13
-34 -58 -43 -58 -10 0 -1 60 11 65 6 2 12 16 12 31 l0 27 -20 -23 c-11 -13
-20 -27 -20 -32 0 -5 -4 -6 -10 -3 -5 3 -10 1 -10 -4 0 -6 5 -11 10 -11 19 0
10 -27 -14 -40 -18 -9 -26 -23 -28 -49 -2 -20 -9 -37 -15 -37 -7 -1 -17 -2
-23 -3 -5 0 -10 -7 -10 -15 0 -15 -106 -90 -130 -92 -8 -1 -25 -4 -37 -8 -16
-5 -23 -3 -23 5 0 7 -11 2 -25 -11 l-25 -23 -9 24 c-5 13 -7 27 -5 30 2 4 -3
9 -11 13 -9 3 -15 0 -15 -9 0 -22 -82 -19 -129 3 -38 19 -66 19 -55 0 4 -7 2
-8 -4 -4 -25 15 31 78 117 133 29 19 56 43 58 54 4 13 11 18 22 14 8 -3 12 -3
9 1 -4 3 4 18 17 32 29 31 18 43 -31 35 -25 -4 -34 -1 -42 14 -9 16 -4 22 39
41 27 13 49 27 49 32 0 13 -14 12 -85 -5 -116 -28 -374 -8 -489 37 -24 10 -31
9 -41 -6 -7 -9 -18 -15 -25 -14 -12 3 -18 -10 -27 -70 -4 -26 -1 -37 16 -48
11 -8 21 -19 21 -25 0 -16 56 -69 73 -69 9 0 19 -5 23 -11 3 -6 15 -9 25 -6
10 3 22 1 25 -4 3 -5 23 -9 45 -9 27 0 46 -7 61 -22 13 -13 31 -21 40 -20 23
4 25 -43 3 -52 -8 -3 -15 -13 -15 -22 0 -11 -5 -14 -16 -10 -9 3 -25 -1 -37
-9 -18 -12 -24 -13 -41 -1 -12 7 -35 12 -52 10 -17 -1 -37 2 -45 6 -7 5 -21 4
-31 -1 -13 -7 -18 -6 -18 4 0 8 -19 20 -44 27 -24 7 -54 23 -65 36 -11 13 -26
24 -32 24 -5 0 -7 5 -4 10 3 6 0 13 -8 16 -9 3 -18 17 -22 32 -3 14 -15 38
-26 54 -11 15 -17 28 -14 28 4 0 0 11 -8 24 -12 17 -13 26 -4 35 8 8 5 11 -11
11 -13 0 -26 8 -29 17 -10 26 -36 53 -50 53 -7 0 -13 12 -13 26 0 19 -4 25
-14 21 -10 -4 -23 7 -36 29 -21 33 -40 45 -40 24 0 -21 -26 -9 -37 18 -15 34
-12 102 5 102 6 0 12 6 12 13 0 7 -6 19 -12 26 -11 10 -9 15 6 27 11 8 14 14
7 14 -7 0 -9 5 -5 12 5 8 2 9 -9 5 -21 -8 -21 -3 -1 18 9 9 13 19 9 23 -4 4
-10 1 -12 -5 -3 -7 -12 -13 -20 -13 -12 0 -13 3 -4 14 9 11 7 15 -9 19 -11 3
-20 0 -20 -6 0 -7 -4 -6 -10 3 -7 11 -11 9 -19 -13 -11 -30 -31 -28 -31 2 0 9
-6 23 -12 30 -11 10 -9 15 6 27 18 13 18 15 3 32 -9 9 -19 33 -22 51 -8 46
-14 54 -30 41 -10 -9 -19 -6 -34 9 -12 12 -21 27 -21 35 0 8 -4 18 -10 21 -5
3 -10 21 -10 38 0 18 -7 60 -16 92 -27 103 5 378 58 490 36 76 106 175 121
169 25 -9 44 30 50 101 8 89 13 111 33 158 16 34 20 37 60 37 37 0 42 3 37 18
-5 13 -1 12 19 -5 l24 -23 22 27 c12 15 20 33 17 40 -2 7 2 13 10 13 8 0 15 7
15 15 0 8 8 16 18 16 16 1 16 2 0 6 -20 5 -25 23 -6 23 6 0 20 8 31 17 10 10
33 18 50 19 17 1 33 7 35 13 5 14 77 14 103 1z m1000 -193 c-12 -12 -118 -37
-157 -37 -17 0 -37 6 -44 14 -9 12 -5 16 27 21 21 4 63 12 93 19 40 10 60 10
72 2 10 -6 14 -14 9 -19z m-336 -23 c16 -12 17 -14 3 -14 -27 0 -68 19 -68 30
0 13 35 4 65 -16z m-1568 -76 c-3 -7 -5 -2 -5 12 0 14 2 19 5 13 2 -7 2 -19 0
-25z m153 -985 c0 -34 -1 -36 -16 -21 -13 12 -14 20 -5 37 16 30 21 26 21 -16z
m267 -289 c-3 -3 -12 -4 -19 -1 -8 3 -5 6 6 6 11 1 17 -2 13 -5z m8 -984 c3
-5 1 -10 -4 -10 -6 0 -11 5 -11 10 0 6 2 10 4 10 3 0 8 -4 11 -10z m1350 -80
c-9 -14 -106 -63 -112 -56 -3 2 10 13 29 22 18 10 42 24 53 30 26 15 38 17 30
4z m1 -175 c-22 -17 -36 -19 -36 -7 0 14 12 22 34 22 21 -1 21 -1 2 -15z
m-1828 -81 c27 -8 29 -29 2 -31 -12 -1 -20 4 -20 13 0 9 -6 14 -12 11 -7 -2
-12 -15 -10 -29 2 -19 -3 -27 -18 -31 -11 -3 -20 -10 -20 -17 0 -6 4 -9 9 -6
5 4 11 1 13 -5 3 -8 10 -8 26 2 16 10 25 11 30 3 12 -19 44 -25 60 -12 13 11
14 11 7 -1 -12 -21 -15 -61 -3 -61 5 0 2 -8 -8 -17 -16 -16 -16 -18 -2 -21 9
-2 18 -12 21 -23 3 -10 10 -19 16 -19 11 0 10 21 -4 95 l-7 40 25 -37 c25 -36
27 -68 5 -68 -6 0 -5 -6 2 -15 9 -11 9 -15 1 -15 -7 0 -10 -4 -7 -9 3 -5 -1
-14 -9 -21 -11 -9 -15 -9 -15 -1 0 7 -4 9 -10 6 -5 -3 -33 1 -62 10 -97 29
-172 16 -233 -41 -39 -36 -40 -30 -8 29 16 28 35 71 41 93 19 64 64 161 69
147 7 -20 27 -15 53 12 25 26 32 28 68 19z m2233 -27 c-13 -13 -26 -3 -16 12
3 6 11 8 17 5 6 -4 6 -10 -1 -17z m-784 -43 c-3 -3 -12 -4 -19 -1 -8 3 -5 6 6
6 11 1 17 -2 13 -5z m-1248 -190 c27 -31 42 -76 31 -94 -6 -9 -15 -8 -39 4
-30 16 -31 16 -31 -6 0 -28 40 -77 58 -70 22 7 45 -7 35 -21 -12 -16 -10 -43
4 -40 12 3 173 -144 173 -158 0 -15 -30 -10 -58 10 -38 26 -186 101 -200 101
-7 0 -12 2 -12 4 0 2 -7 39 -16 81 -21 101 -14 141 26 149 31 6 43 29 13 24
-12 -2 -19 4 -21 20 -4 29 9 28 37 -4z m2766 -44 c4 -6 16 -8 27 -4 14 4 18 2
14 -5 -4 -6 -14 -11 -22 -11 -8 0 -14 -5 -14 -11 0 -6 -6 -9 -14 -6 -8 3 -33
-8 -56 -24 -23 -17 -44 -28 -47 -26 -2 3 9 15 26 28 19 14 31 32 31 46 0 18 6
23 24 23 14 0 28 -5 31 -10z m-3632 -32 c-3 -16 -12 -28 -19 -28 -8 0 -32 -16
-54 -36 l-40 -36 -67 13 -68 13 60 11 c74 13 155 46 155 62 0 10 31 35 37 30
0 -1 -1 -14 -4 -29z m197 2 c-19 -11 -44 -19 -55 -19 -19 0 -19 1 4 19 13 11
37 20 55 20 l31 -1 -35 -19z m1317 -129 c56 -23 67 -25 59 -13 -2 4 -1 14 4
21 6 10 9 8 15 -8 3 -11 11 -21 18 -21 8 0 8 3 0 11 -9 9 -6 16 9 29 19 15 24
15 51 2 18 -9 60 -16 103 -16 40 -1 70 -5 66 -10 -3 -5 8 -7 25 -3 32 6 110
-13 121 -30 4 -5 36 -13 70 -17 35 -4 75 -12 89 -17 20 -7 30 -6 43 6 9 8 19
12 23 9 3 -4 16 -7 28 -8 27 -1 51 -36 30 -43 -9 -4 -10 -7 -2 -12 33 -21
-102 -214 -251 -359 -65 -63 -118 -119 -118 -123 0 -28 123 27 156 69 8 12 12
11 23 -2 9 -11 18 -13 30 -7 22 12 138 41 162 41 10 0 19 4 19 10 0 14 50 38
85 40 46 3 57 1 50 -10 -4 -6 -11 -8 -16 -5 -5 4 -9 -1 -9 -9 0 -10 -9 -16
-23 -16 -12 0 -92 -25 -177 -56 -85 -31 -192 -66 -236 -78 -99 -27 -126 -43
-148 -91 -10 -20 -20 -34 -22 -32 -11 10 25 74 54 99 l31 26 -91 87 c-50 48
-110 96 -134 108 -24 11 -44 24 -44 28 0 3 -51 69 -113 146 -63 77 -124 162
-137 189 -21 44 -70 164 -70 170 0 2 39 -17 88 -41 48 -24 110 -53 139 -64z
m-1373 58 c-7 -11 -34 -12 -34 -1 0 14 11 21 26 15 8 -3 11 -9 8 -14z m3780 6
c3 -8 2 -15 -3 -15 -5 0 -14 7 -21 15 -10 12 -10 15 3 15 8 0 17 -7 21 -15z
m-2914 -56 c0 -4 7 -9 14 -12 10 -4 13 -1 9 9 -9 25 24 16 47 -13 18 -23 19
-28 5 -35 -20 -12 -19 -28 1 -28 18 0 44 -23 44 -39 0 -16 -7 -14 -31 10 -11
11 -27 18 -35 15 -8 -3 -21 5 -29 18 -9 13 -29 29 -45 36 -16 7 -35 19 -42 27
-10 12 -8 18 12 34 23 17 26 17 38 2 6 -9 12 -20 12 -24z m30 31 c0 -5 -2 -10
-4 -10 -3 0 -8 5 -11 10 -3 6 -1 10 4 10 6 0 11 -4 11 -10z m-703 -127 c-3
-10 -5 -4 -5 12 0 17 2 24 5 18 2 -7 2 -21 0 -30z m4024 -6 c-8 -8 -11 -7 -11
4 0 20 13 34 18 19 3 -7 -1 -17 -7 -23z m-1841 -7 c0 -5 -9 -10 -21 -10 -11 0
-17 5 -14 10 3 6 13 10 21 10 8 0 14 -4 14 -10z m1840 -19 c0 -6 -4 -13 -10
-16 -5 -3 -10 1 -10 9 0 9 5 16 10 16 6 0 10 -4 10 -9z m-4922 -51 c7 -11 8
-20 4 -20 -5 0 -17 9 -27 20 -14 15 -15 20 -4 20 8 0 20 -9 27 -20z m891 -95
c-22 -84 -38 -137 -47 -148 -6 -7 -20 -70 -32 -141 -12 -71 -29 -140 -37 -153
-11 -16 -14 -35 -9 -62 4 -28 2 -42 -9 -51 -13 -10 -15 -9 -15 11 0 13 7 58
16 99 19 91 32 268 20 280 -15 15 4 70 25 70 12 0 19 7 19 19 0 11 7 32 15 48
8 15 22 55 32 88 l18 60 6 -45 c3 -24 2 -58 -2 -75z m2670 14 c-10 -61 -30
-99 -53 -99 -6 0 -36 -13 -66 -30 -62 -33 -74 -36 -67 -16 7 17 -52 6 -88 -18
-29 -19 -31 -19 -38 -3 -3 6 -12 29 -21 50 -20 45 -7 49 18 5 18 -29 20 -30
32 -13 24 32 17 55 -16 62 -34 6 -35 22 -3 38 11 6 28 19 38 29 13 13 20 15
23 7 3 -8 10 -7 24 6 20 18 21 17 14 -4 -3 -13 -8 -31 -11 -40 -5 -20 21 -60
32 -50 3 4 1 18 -6 31 -11 20 -10 28 4 50 10 15 24 25 31 22 8 -3 14 -1 14 4
0 6 4 10 9 10 12 0 6 -76 -8 -113 -7 -18 -15 -25 -26 -21 -16 6 -21 -11 -6
-20 14 -9 72 15 64 27 -4 6 0 8 9 4 13 -4 17 3 20 33 2 26 -1 41 -9 44 -18 7
-16 26 2 26 8 0 15 5 15 10 0 6 7 10 15 10 8 0 22 11 32 24 26 35 34 11 22
-65z m-2381 67 c-26 -19 -22 -27 7 -16 20 7 25 6 25 -5 0 -8 4 -15 8 -15 5 0
10 -23 11 -51 1 -42 -1 -50 -14 -46 -12 5 -13 3 -3 -13 15 -24 -4 -154 -26
-179 -10 -11 -16 -36 -16 -69 0 -28 -5 -63 -11 -79 -7 -15 -13 -36 -14 -46 -3
-27 -28 -47 -62 -50 -32 -2 -32 -2 -12 -23 10 -11 19 -33 19 -50 0 -67 -29
-106 -31 -41 0 17 -3 26 -6 20 -2 -7 -11 -13 -19 -13 -20 0 -17 -12 11 -42 14
-15 21 -30 16 -33 -6 -3 -14 2 -19 11 -7 12 -11 13 -17 4 -4 -6 -2 -17 4 -23
15 -15 14 -48 -1 -44 -6 1 -14 -7 -16 -18 -2 -11 -9 -25 -16 -30 -7 -6 -12
-20 -11 -33 1 -13 -5 -51 -12 -85 -8 -34 -15 -74 -15 -89 -1 -29 -18 -40 -18
-13 0 58 65 393 85 443 8 19 12 38 9 43 -3 5 4 39 15 76 26 92 71 314 71 356
0 18 -5 38 -12 45 -9 9 -9 15 0 24 9 9 12 9 12 0 0 -7 4 -12 9 -12 6 0 6 12 0
32 -11 41 -11 51 0 44 5 -4 7 3 4 14 -5 17 0 20 28 20 30 -1 32 -2 17 -14z
m524 -53 c12 -15 48 -17 48 -4 0 5 -5 11 -12 13 -7 3 -9 12 -5 22 9 23 32 7
41 -28 6 -23 43 -46 74 -46 10 0 49 -20 87 -45 39 -25 74 -45 79 -45 5 0 7 -3
4 -6 -3 -3 -23 3 -45 14 -21 11 -60 27 -88 35 -142 43 -228 102 -209 144 6 15
9 12 12 -12 2 -16 8 -36 14 -42z m3163 48 c-3 -6 -11 -11 -16 -11 -5 0 -4 6 3
14 14 16 24 13 13 -3z m-1470 0 c3 -5 1 -12 -5 -16 -5 -3 -10 1 -10 9 0 18 6
21 15 7z m529 -7 c20 -19 21 -31 1 -14 -8 6 -19 9 -25 5 -6 -4 -23 -3 -38 1
l-27 7 30 7 c17 4 33 8 37 9 4 0 14 -6 22 -15z m540 -16 c18 -18 42 -38 52
-44 10 -5 29 -30 42 -55 22 -44 22 -44 2 -47 -24 -4 -25 -15 -6 -45 25 -39 49
-153 36 -176 -13 -26 -42 -28 -39 -3 3 34 -2 37 -15 7 l-13 -30 -7 40 c-4 22
-11 42 -15 45 -18 12 -71 95 -71 110 0 10 -7 21 -16 24 -24 9 -24 8 -13 -20 8
-23 7 -25 -5 -15 -21 17 -24 0 -14 -76 6 -40 5 -85 -2 -120 -5 -31 -10 -79
-10 -106 0 -43 -2 -48 -15 -37 -9 8 -15 29 -15 56 0 23 -4 46 -10 49 -18 11
-11 170 11 251 12 42 19 89 16 103 -6 30 6 57 21 47 6 -3 13 10 17 34 8 49 24
51 69 8z m-84 18 c0 -3 -4 -8 -10 -11 -5 -3 -10 -1 -10 4 0 6 5 11 10 11 6 0
10 -2 10 -4z m-70 -26 c0 -11 -4 -20 -10 -20 -5 0 -10 9 -10 20 0 11 5 20 10
20 6 0 10 -9 10 -20z m-1197 3 c3 -5 -5 -17 -16 -28 -17 -17 -19 -17 -14 -2 4
9 2 17 -3 17 -6 0 -10 5 -10 10 0 12 37 14 43 3z m647 -3 c-8 -5 -22 -10 -30
-10 -13 0 -13 1 0 10 8 5 22 10 30 10 13 0 13 -1 0 -10z m-535 -20 c-3 -5 -16
-10 -28 -9 -21 0 -21 1 -2 9 28 12 37 12 30 0z m-3142 -15 c-3 -9 -8 -14 -10
-11 -3 3 -2 9 2 15 9 16 15 13 8 -4z m4938 -59 c-34 -48 -51 -64 -51 -46 0 12
29 57 60 93 28 33 21 -2 -9 -47z m-3925 13 c6 -32 -5 -109 -17 -109 -5 0 -6
17 -3 38 3 20 5 53 4 72 -1 37 8 37 16 -1z m-434 4 c2 -10 -5 -40 -15 -68 -10
-27 -22 -65 -27 -83 -9 -36 -27 -62 -42 -62 -6 0 -7 8 -4 18 7 16 6 16 -10 0
-18 -18 -10 -42 12 -34 8 3 14 3 14 -1 0 -11 -35 -32 -52 -33 -10 0 -18 -7
-18 -16 0 -8 4 -13 10 -9 5 3 3 -7 -5 -22 -10 -19 -11 -31 -3 -40 6 -8 7 -13
0 -13 -11 0 -21 26 -52 130 -12 41 -26 88 -31 104 -11 37 -12 106 -1 106 10 0
42 -93 42 -121 0 -11 6 -19 14 -19 19 0 27 38 13 61 -13 22 4 42 66 74 21 11
43 26 49 33 15 17 36 15 40 -5z m4188 3 c0 -9 7 -12 19 -9 13 3 21 -2 26 -16
3 -12 11 -21 16 -21 14 0 11 -40 -3 -41 -7 -1 -23 0 -35 1 -13 1 -23 -3 -23
-9 0 -6 5 -11 11 -11 18 0 41 -29 37 -48 -5 -25 -22 -21 -26 6 -4 26 -18 29
-26 5 -3 -11 -4 -9 -3 6 1 13 -4 26 -10 28 -7 3 -13 -2 -13 -11 0 -10 -6 -13
-15 -10 -10 4 -15 0 -15 -12 0 -9 -3 -15 -6 -12 -6 6 23 120 38 151 10 20 28
23 28 3z m-983 -18 c-3 -8 -6 -5 -6 6 -1 11 2 17 5 13 3 -3 4 -12 1 -19z m78
-6 c-8 -8 -25 10 -19 20 4 6 9 5 15 -3 4 -7 6 -15 4 -17z m-3150 -2 c3 -5 -1
-10 -9 -10 -8 0 -18 5 -21 10 -3 6 1 10 9 10 8 0 18 -4 21 -10z m525 -42 c0
-11 24 -29 68 -50 58 -29 78 -33 149 -34 46 -1 89 -6 95 -12 7 -5 23 -13 36
-16 45 -14 82 -55 82 -93 0 -19 5 -43 11 -54 6 -12 7 -28 3 -37 -14 -34 -10
-67 9 -86 15 -15 16 -20 5 -27 -10 -7 -9 -9 5 -9 26 0 22 -38 -4 -42 -22 -3
-22 -5 -25 -303 -1 -179 -6 -311 -13 -327 -8 -22 -8 -26 4 -21 10 3 15 -1 15
-12 0 -9 4 -14 9 -11 5 4 20 2 33 -3 21 -9 20 -10 -13 -10 l-37 -1 1 -157 c0
-177 -6 -225 -29 -216 -8 3 -13 12 -10 19 3 8 4 14 2 14 -3 0 -11 2 -18 5 -11
5 -14 -4 -12 -42 2 -37 1 -44 -7 -30 -6 10 -8 24 -6 32 8 19 -2 25 -27 15 -13
-5 -29 -4 -37 1 -8 5 -10 9 -5 9 6 0 5 5 -2 12 -7 7 -12 22 -12 35 0 30 -13
29 -30 -2 -14 -26 -25 -25 -25 3 0 10 -7 16 -17 14 -9 -1 -19 1 -22 6 -6 10
37 8 53 -3 6 -3 11 -1 11 4 0 17 30 13 36 -4 4 -8 10 -15 15 -15 14 0 0 25
-23 39 -14 9 -23 10 -27 2 -5 -8 -15 -7 -34 2 -27 12 -36 27 -17 27 6 0 10 9
10 19 0 11 5 23 10 26 10 6 14 -7 11 -32 -1 -7 6 -13 16 -12 10 0 13 3 6 6 -9
3 -10 10 -3 23 7 13 4 24 -15 44 -24 26 -25 27 -25 5 0 -24 -11 -19 -18 9 -17
71 -18 162 -2 172 10 6 8 10 -7 19 -11 5 -23 7 -27 4 -3 -3 -6 -2 -6 4 0 7 20
10 52 7 39 -3 49 -1 40 8 -7 7 -12 17 -12 22 0 6 5 5 11 -1 6 -6 18 -9 27 -5
11 4 14 1 9 -11 -8 -20 1 -26 44 -27 48 -2 79 7 93 26 17 23 8 64 -14 64 -11
0 -19 10 -22 25 -3 14 -1 25 3 25 5 0 9 -7 9 -15 0 -8 4 -15 10 -15 5 0 8 29
7 68 -1 37 1 79 6 95 6 21 4 27 -8 27 -9 0 -14 -4 -11 -9 10 -15 -33 -20 -48
-6 -8 8 -23 11 -36 8 -20 -5 -22 -3 -18 15 10 36 -7 33 -27 -4 -20 -37 -36
-42 -55 -19 -9 11 -10 19 -3 26 10 10 7 49 -4 49 -2 0 -11 -6 -18 -14 -10 -9
-11 -16 -3 -24 12 -12 2 -62 -12 -62 -18 0 -16 101 3 138 9 19 8 25 -3 32 -13
8 -12 10 3 10 9 0 17 -7 17 -15 0 -8 7 -15 15 -15 8 0 15 5 15 10 0 6 -4 10
-10 10 -17 0 -11 48 8 55 16 6 16 7 -2 21 -11 8 -14 14 -8 14 7 0 12 5 12 11
0 7 7 17 15 23 12 9 12 14 0 29 -8 12 -15 14 -20 8 -3 -6 -1 -11 5 -11 6 0 8
-5 4 -12 -5 -7 -11 -5 -21 7 -10 14 -16 16 -24 8 -14 -14 -39 -6 -39 13 0 8 6
11 15 8 8 -4 15 -2 15 4 0 6 -5 12 -11 14 -6 2 -11 16 -11 31 0 21 -5 27 -23
27 -18 0 -21 -4 -18 -24 3 -14 -2 -38 -10 -55 -8 -16 -11 -31 -7 -33 15 -5 -1
-88 -16 -88 -17 0 -17 1 -4 36 9 23 9 25 -4 15 -11 -9 -15 -9 -19 1 -4 10 -8
10 -16 -2 -7 -10 -6 -17 2 -22 21 -13 -5 -60 -40 -75 -31 -12 -33 -12 -33 7 0
11 -4 20 -10 20 -12 0 -30 -33 -30 -55 0 -16 -23 -45 -35 -45 -4 0 0 11 9 25
9 13 16 31 16 39 0 21 -19 31 -33 17 -9 -9 -9 -14 -1 -19 19 -12 -2 -49 -30
-54 -26 -5 -26 -5 -10 19 14 23 14 26 -1 43 -18 20 -29 66 -19 82 4 6 8 38 10
71 3 59 15 80 39 70 7 -2 15 7 17 21 4 22 2 26 -18 26 -31 0 -37 14 -15 34 29
26 56 108 52 156 -1 19 0 22 8 11 7 -11 12 -4 21 30 6 24 17 65 25 91 8 26 15
54 15 63 0 9 5 26 11 37 9 17 13 18 20 7 5 -8 9 -22 9 -31z m2640 22 c0 -5 -4
-10 -10 -10 -5 0 -10 5 -10 10 0 6 5 10 10 10 6 0 10 -4 10 -10z m-3573 -32
c-3 -8 -6 -5 -6 6 -1 11 2 17 5 13 3 -3 4 -12 1 -19z m4816 -27 c44 -58 47
-74 13 -58 -27 13 -82 107 -62 107 6 -1 28 -23 49 -49z m-2333 9 c0 -5 -5 -10
-11 -10 -5 0 -7 5 -4 10 3 6 8 10 11 10 2 0 4 -4 4 -10z m-1001 -26 c17 -14
28 -30 25 -36 -7 -11 -3 -20 49 -129 20 -41 37 -83 37 -92 0 -9 5 -17 10 -17
6 0 10 -7 10 -16 0 -9 7 -30 16 -47 33 -62 35 -69 30 -74 -3 -3 -17 -2 -31 1
-19 5 -25 11 -21 22 4 10 -28 80 -78 173 -46 86 -93 175 -105 199 l-21 42 24
0 c13 0 38 -12 55 -26z m268 10 c-3 -3 -12 -4 -19 -1 -8 3 -5 6 6 6 11 1 17
-2 13 -5z m754 -14 c27 0 49 -3 49 -8 0 -8 -159 -46 -165 -40 -3 2 -2 14 1 25
6 22 28 34 52 27 8 -2 36 -4 63 -4z m119 0 c0 -5 -2 -10 -4 -10 -3 0 -8 5 -11
10 -3 6 -1 10 4 10 6 0 11 -4 11 -10z m60 -5 c0 -8 -7 -15 -15 -15 -26 0 -18
20 13 29 1 1 2 -6 2 -14z m-2647 -150 c2 -96 5 -125 15 -125 9 0 11 -7 7 -19
-3 -12 0 -21 9 -24 20 -8 60 -141 49 -161 -6 -12 -25 16 -72 107 -63 120 -148
263 -181 302 -9 11 -20 28 -24 39 -6 18 -5 18 18 2 20 -12 31 -14 53 -5 20 7
33 7 49 -2 30 -15 54 -5 54 23 1 21 2 21 11 5 6 -10 11 -74 12 -142z m2791
136 c16 -6 12 -10 -22 -18 -24 -6 -44 -7 -48 -2 -3 5 4 9 15 9 12 0 21 5 21
10 0 11 7 12 34 1z m-3328 -28 c-2 -2 -16 -1 -32 3 -25 6 -26 8 -9 14 18 7 51
-7 41 -17z m5249 17 c3 -5 1 -10 -4 -10 -6 0 -11 5 -11 10 0 6 2 10 4 10 3 0
8 -4 11 -10z m-2010 -10 c-3 -5 -16 -10 -28 -9 -20 1 -20 2 3 9 14 4 26 8 28
9 2 1 0 -3 -3 -9z m1295 -10 c0 -5 -2 -10 -4 -10 -3 0 -8 5 -11 10 -3 6 -1 10
4 10 6 0 11 -4 11 -10z m760 1 c0 -5 -7 -12 -16 -15 -24 -9 -28 -7 -14 9 14
17 30 20 30 6z m-5227 -15 c25 -19 21 -27 -8 -14 -14 6 -25 15 -25 20 0 12 12
9 33 -6z m2807 10 c0 -2 -7 -7 -16 -10 -8 -3 -12 -2 -9 4 6 10 25 14 25 6z
m2359 -10 c9 -11 6 -12 -15 -8 -19 3 -22 7 -12 13 16 11 14 11 27 -5z m-4382
-18 c-3 -8 -6 -5 -6 6 -1 11 2 17 5 13 3 -3 4 -12 1 -19z m4049 -16 c-10 -11
-16 -12 -16 -4 0 7 5 12 10 12 6 0 10 8 11 18 0 11 2 13 6 4 3 -8 -2 -21 -11
-30z m-4720 -29 c-2 -2 -14 1 -27 6 -13 5 -28 9 -33 9 -18 1 -26 27 -9 33 14
4 78 -40 69 -48z m2640 42 c-21 -16 -32 -13 -21 4 3 6 14 11 23 11 15 -1 15
-2 -2 -15z m2559 -5 c-3 -5 0 -10 7 -10 8 0 28 -16 46 -35 32 -33 35 -55 8
-55 -7 0 -41 -18 -75 -40 -34 -22 -65 -40 -69 -40 -4 0 -19 -11 -34 -25 -15
-14 -30 -21 -33 -15 -3 6 -2 10 2 10 5 0 26 15 46 34 20 18 50 39 67 46 26 11
28 15 18 28 -11 13 -10 14 11 7 l24 -7 -21 23 c-15 15 -20 30 -16 46 4 16 2
23 -7 23 -11 0 -11 3 1 10 20 13 33 13 25 0z m-1850 -28 c30 -27 31 -30 14
-40 -26 -17 -37 -15 -44 8 -3 11 -11 20 -16 20 -15 0 -11 -15 11 -40 16 -18
17 -26 8 -44 -6 -11 -10 -22 -9 -24 6 -7 -12 -62 -21 -62 -5 0 -8 -10 -7 -22
5 -34 -8 -48 -44 -49 -18 -1 -24 -3 -14 -6 19 -5 22 -18 7 -28 -6 -4 -8 -11
-4 -16 3 -5 -6 -33 -20 -62 -14 -28 -32 -77 -41 -107 -43 -147 -60 -197 -84
-239 -25 -44 -49 -101 -55 -129 -1 -8 -7 -17 -12 -20 -6 -4 -10 -29 -10 -57 1
-27 -5 -56 -12 -63 -7 -8 -9 -18 -6 -23 3 -6 -2 -9 -12 -7 -21 3 -22 -12 -10
-104 4 -27 2 -49 -4 -53 -5 -3 -10 -4 -10 -2 0 2 -5 29 -11 58 -5 30 -13 68
-16 84 -13 67 -14 160 -3 202 15 50 33 69 24 23 -8 -40 12 -40 21 0 4 18 13
30 23 31 11 0 12 2 5 6 -18 7 -16 33 3 33 8 0 12 5 8 11 -4 7 0 9 13 5 16 -5
19 -2 17 24 -1 17 13 66 31 110 18 43 30 81 27 84 -2 3 0 11 5 18 6 7 16 31
23 53 7 22 23 60 36 85 26 49 30 76 13 82 -9 3 -7 19 5 58 22 70 47 130 55
130 3 0 17 9 31 20 21 17 23 21 10 29 -12 8 -12 13 4 30 25 27 32 26 71 -7z
m590 -12 c3 -5 -1 -10 -10 -10 -9 0 -13 5 -10 10 3 6 8 10 10 10 2 0 7 -4 10
-10z m68 -57 c17 -38 32 -72 32 -78 0 -5 4 -16 8 -22 5 -7 4 -13 -1 -13 -12 0
-45 37 -48 53 -1 7 -11 33 -24 59 -19 41 -21 68 -4 68 3 0 19 -30 37 -67z
m-3343 39 c0 -5 -3 -12 -7 -16 -5 -4 -9 -20 -10 -34 -2 -39 -23 -116 -33 -126
-6 -6 -15 4 -24 24 -15 37 -10 64 21 100 10 11 19 25 19 30 1 6 2 15 3 20 1
12 31 14 31 2z m2790 -19 c0 -7 4 -13 9 -13 5 0 11 -12 13 -27 3 -16 9 -36 13
-47 15 -35 -18 -12 -38 27 -10 20 -27 39 -38 42 -31 10 -23 32 11 31 17 -1 30
-7 30 -13z m65 -12 c3 -5 1 -12 -5 -16 -5 -3 -10 1 -10 9 0 18 6 21 15 7z
m-145 -11 c0 -5 -4 -10 -10 -10 -5 0 -10 5 -10 10 0 6 5 10 10 10 6 0 10 -4
10 -10z m-2444 -56 c-3 -9 -10 -13 -15 -10 -5 3 -12 -2 -15 -11 -4 -10 -1 -20
7 -24 8 -5 13 -18 11 -31 -1 -13 -3 -30 -3 -39 -1 -10 -12 -19 -28 -22 -16 -3
-39 -8 -53 -12 -23 -6 -23 -6 5 14 17 11 26 21 20 21 -5 0 0 7 12 15 19 13 20
18 10 46 -11 27 -10 33 11 49 12 10 22 25 22 32 0 8 3 18 8 22 9 10 16 -30 8
-50z m2481 24 c4 -13 8 -43 8 -68 0 -40 2 -45 23 -44 12 0 22 -3 22 -7 0 -4 3
-16 7 -26 6 -17 5 -17 -15 1 -12 11 -25 16 -29 13 -3 -4 -1 -7 5 -7 7 0 12 -4
12 -10 0 -20 -46 -9 -63 16 -18 25 -18 26 0 46 12 15 13 19 3 14 -8 -4 -6 0 4
8 17 13 17 16 4 16 -9 0 -24 3 -32 6 -14 5 -15 0 -11 -32 4 -26 2 -34 -4 -24
-9 15 -14 51 -12 79 1 11 6 10 26 -3 25 -16 25 -16 25 14 0 35 15 40 27 8z
m1113 1 c0 -4 -7 -6 -15 -3 -8 4 -15 10 -15 15 0 4 7 6 15 3 8 -4 15 -10 15
-15z m-1000 -4 c0 -8 -4 -15 -10 -15 -5 0 -10 7 -10 15 0 8 5 15 10 15 6 0 10
-7 10 -15z m1430 1 c0 -3 -4 -8 -10 -11 -5 -3 -10 -1 -10 4 0 6 5 11 10 11 6
0 10 -2 10 -4z m337 -2 c-3 -3 3 -15 14 -27 25 -27 24 -30 -8 -44 -31 -15 -55
-17 -33 -3 31 20 -1 21 -39 2 -29 -15 -39 -17 -35 -7 3 8 18 18 32 24 15 5 21
10 13 10 -20 1 27 51 47 51 9 0 13 -3 9 -6z m-375 -36 c-6 -6 -15 -8 -19 -4
-4 4 -1 11 7 16 8 5 17 7 19 4 3 -2 -1 -10 -7 -16z m-1966 -13 c-4 -15 -2 -25
4 -25 6 0 8 -5 4 -11 -4 -7 -9 -7 -13 -2 -12 18 -41 23 -41 7 0 -8 -4 -12 -10
-9 -18 11 -11 30 18 47 37 24 45 22 38 -7z m57 4 c-8 -8 -16 -8 -30 0 -16 9
-14 10 12 11 21 0 26 -3 18 -11z m-1283 -9 c0 -5 -4 -10 -10 -10 -5 0 -10 5
-10 10 0 6 5 10 10 10 6 0 10 -4 10 -10z m3145 -20 c-10 -11 -23 -20 -28 -20
-6 0 0 11 13 25 27 29 42 25 15 -5z m-2481 -13 c4 -19 3 -26 -4 -22 -5 3 -10
18 -10 32 0 32 5 28 14 -10z m683 17 c-3 -3 -12 -4 -19 -1 -8 3 -5 6 6 6 11 1
17 -2 13 -5z m2269 -29 c-3 -8 -1 -15 4 -15 6 0 10 -6 10 -12 0 -8 -14 -13
-35 -14 -41 -1 -44 7 -13 36 26 24 43 26 34 5z m-4782 -12 c8 -20 -14 -45 -30
-35 -7 4 -8 15 -3 30 10 26 24 29 33 5z m3984 -8 c-3 -3 -9 2 -12 12 -6 14 -5
15 5 6 7 -7 10 -15 7 -18z m-1598 5 c0 -5 -5 -10 -11 -10 -5 0 -7 5 -4 10 3 6
8 10 11 10 2 0 4 -4 4 -10z m2240 -4 c0 -8 -4 -17 -8 -20 -4 -2 -8 4 -8 15 0
10 4 19 8 19 4 0 8 -6 8 -14z m-4980 -17 c0 -6 -4 -7 -10 -4 -5 3 -10 11 -10
16 0 6 5 7 10 4 6 -3 10 -11 10 -16z m3159 0 c12 -20 11 -21 -11 -16 -12 4
-28 7 -35 7 -7 0 -10 7 -7 15 9 22 37 18 53 -6z m-2249 7 c0 -11 -19 -15 -25
-6 -3 5 1 10 9 10 9 0 16 -2 16 -4z m1199 -142 c5 -19 6 -36 1 -39 -5 -3 -7
-12 -4 -20 3 -7 2 -21 -3 -30 -11 -20 -36 195 -26 221 5 13 10 1 15 -39 4 -32
12 -74 17 -93z m1231 132 c0 -8 -51 -13 -56 -5 -3 5 9 9 25 9 17 0 31 -2 31
-4z m1010 -10 c0 -3 -4 -8 -10 -11 -5 -3 -10 -1 -10 4 0 6 5 11 10 11 6 0 10
-2 10 -4z m-1639 -29 c-12 -15 -5 -47 10 -47 5 0 9 -5 9 -10 0 -6 -7 -10 -16
-8 -25 4 -28 -19 -4 -25 23 -6 27 -27 5 -27 -8 0 -15 -6 -16 -12 0 -7 -7 1
-14 17 -21 45 -18 85 8 109 24 24 37 25 18 3z m2188 -9 c-8 -7 -37 -28 -64
-47 -28 -19 -62 -45 -77 -59 -15 -14 -30 -23 -33 -20 -3 3 9 18 27 32 18 15
47 38 63 52 55 46 125 81 84 42z m-1969 -13 c0 -2 -7 -20 -17 -39 -15 -32 -21
-36 -72 -42 -31 -3 -62 -11 -69 -17 -18 -14 -24 -4 -25 40 0 21 -5 42 -11 46
-6 5 -2 5 9 1 32 -13 118 -12 145 2 26 14 40 17 40 9z m309 -42 c5 -10 13 -15
17 -11 11 12 101 -89 107 -122 6 -27 27 -43 27 -20 0 6 -5 10 -11 10 -5 0 -7
5 -3 11 4 7 14 4 28 -10 18 -19 19 -23 6 -31 -13 -8 -13 -10 1 -10 12 0 20
-17 29 -62 6 -35 14 -69 16 -75 2 -7 -3 -13 -11 -13 -8 0 -15 -4 -15 -10 0 -5
-4 -10 -10 -10 -5 0 -9 6 -7 13 1 7 -7 11 -20 9 -18 -3 -22 3 -25 30 -2 26 -8
34 -27 36 -16 3 -22 0 -18 -10 2 -7 10 -12 17 -10 8 2 10 -3 6 -14 -4 -10 1
-25 11 -36 16 -18 16 -18 0 -12 -9 3 -17 11 -17 17 0 6 -11 1 -23 -12 -16 -14
-30 -19 -42 -15 -12 5 -16 4 -11 -4 3 -6 -1 -15 -10 -20 -9 -5 -14 -15 -10
-21 4 -6 12 -9 17 -5 5 3 7 9 4 14 -3 4 2 11 11 14 13 5 14 2 9 -11 -16 -36
-18 -75 -4 -83 10 -7 10 -11 0 -24 -11 -13 -10 -18 3 -32 9 -8 14 -20 11 -25
-4 -5 -1 -9 4 -9 6 0 11 5 11 10 0 6 5 10 10 10 6 0 10 -7 10 -16 0 -11 6 -14
23 -9 30 10 27 10 80 1 40 -6 46 -10 38 -24 -14 -28 -1 -91 21 -103 25 -13 43
-58 28 -73 -13 -13 -13 -29 0 -21 6 4 7 -6 3 -26 -5 -28 -4 -32 13 -27 14 4
20 0 20 -13 0 -12 -7 -19 -18 -19 -11 0 -18 -7 -18 -20 0 -11 -4 -20 -10 -20
-20 0 -10 -19 12 -22 22 -3 56 -50 57 -80 1 -10 5 -18 10 -18 5 0 9 -21 9 -46
1 -40 -1 -44 -18 -39 -12 4 -20 2 -20 -5 0 -8 -6 -8 -20 0 -16 9 -20 8 -20 -5
0 -24 -29 -17 -42 10 -12 27 -34 35 -24 9 4 -10 -1 -25 -10 -35 -9 -10 -13
-22 -9 -28 3 -7 0 -8 -9 -5 -18 7 -22 24 -6 24 6 0 10 5 10 11 0 6 -7 9 -15 6
-8 -4 -17 -2 -20 3 -4 6 1 10 9 10 36 0 1 49 -35 50 -9 0 -20 7 -23 16 -5 13
-9 14 -22 4 -12 -11 -12 -15 -2 -21 10 -7 10 -9 0 -9 -7 0 -17 10 -22 23 l-9
22 -6 -22 c-5 -14 -12 -20 -22 -16 -11 4 -14 2 -11 -8 3 -8 10 -14 15 -14 6 0
15 -3 19 -7 4 -5 2 -8 -4 -8 -6 0 -9 -7 -6 -15 4 -10 0 -15 -15 -15 -14 0 -21
6 -21 20 0 11 -4 20 -10 20 -14 0 -12 -12 6 -38 18 -26 8 -29 -24 -6 -20 14
-22 14 -22 0 0 -9 -4 -16 -10 -16 -5 0 -7 -7 -3 -17 5 -13 2 -15 -16 -10 -18
4 -21 2 -16 -14 4 -13 2 -19 -9 -19 -9 0 -15 3 -14 8 4 11 -50 61 -59 53 -4
-3 -2 1 5 10 6 9 11 33 11 55 -1 21 2 69 6 106 6 52 4 72 -6 84 -11 14 -11 18
-1 21 19 7 14 23 -5 17 -17 -5 -17 -5 0 9 23 19 22 54 -3 67 -11 6 -17 16 -14
25 4 8 1 15 -5 15 -6 0 -11 7 -11 15 0 8 -4 15 -10 15 -5 0 -10 -4 -10 -10 0
-14 -27 -13 -32 2 -2 6 -10 8 -16 4 -16 -10 -15 -26 2 -26 7 0 19 -7 26 -15
14 -17 0 -21 -17 -4 -8 8 -13 8 -17 0 -4 -6 -1 -11 6 -11 7 0 4 -6 -7 -12 -22
-13 -155 -18 -155 -5 0 4 7 7 16 7 11 0 14 5 10 16 -5 14 -1 15 29 10 22 -4
35 -3 35 4 0 5 -20 10 -45 10 -25 0 -45 5 -45 10 0 6 13 10 29 10 16 0 37 3
46 6 14 6 14 8 -1 25 -9 11 -25 19 -35 19 -10 0 -21 5 -24 10 -3 6 1 10 9 10
8 0 24 10 35 22 19 20 19 22 3 34 -9 7 -12 14 -7 14 6 1 28 4 50 7 72 9 90 9
87 -5 -2 -10 2 -10 17 0 14 9 17 16 10 24 -8 9 -4 11 13 7 16 -3 19 -2 10 5
-10 7 -10 11 3 22 13 10 15 9 15 -8 0 -12 9 -26 20 -32 19 -10 70 -4 70 9 0 3
3 17 7 30 5 18 3 22 -7 16 -10 -6 -12 -2 -8 18 3 15 1 24 -3 21 -5 -3 -9 -13
-9 -22 -1 -15 -2 -15 -15 2 -19 25 -19 40 0 32 18 -7 20 5 3 22 -16 16 -20
109 -7 151 11 34 12 34 24 12 10 -20 12 -17 12 31 1 89 4 117 13 123 12 8 3
84 -12 103 -11 13 -10 14 10 8 19 -6 25 -4 29 13 7 26 28 27 42 4z m-2413 -71
c-13 -12 -17 8 -9 44 l8 39 3 -39 c2 -21 1 -41 -2 -44z m2521 72 c-3 -3 -12
-4 -19 -1 -8 3 -5 6 6 6 11 1 17 -2 13 -5z m-2114 -29 c-7 -21 -13 -19 -13 6
0 11 4 18 10 14 5 -3 7 -12 3 -20z m3811 -31 c-27 -13 -56 -23 -65 -24 -9 0
-22 -7 -29 -15 -16 -19 -31 -20 -24 -1 3 8 31 25 62 39 73 32 85 35 96 29 5
-3 -13 -16 -40 -28z m91 26 c19 -8 19 -9 -2 -9 -12 -1 -25 4 -28 9 -7 12 2 12
30 0z m-5097 -37 c8 -8 9 -13 2 -13 -16 0 -60 31 -60 42 0 10 38 -8 58 -29z
m-528 -24 c115 -24 208 -50 320 -91 126 -46 183 -79 191 -112 4 -15 5 -26 1
-23 -4 2 -22 9 -40 16 -24 10 -30 16 -21 22 10 6 0 14 -34 29 -26 12 -52 18
-59 14 -6 -4 -8 -3 -4 4 7 12 -7 17 -184 67 -185 53 -289 66 -446 57 -100 -6
-140 -13 -172 -29 -55 -27 -54 -11 1 22 97 56 247 64 447 24z m2840 21 c0 -5
-5 -10 -11 -10 -5 0 -7 5 -4 10 3 6 8 10 11 10 2 0 4 -4 4 -10z m2349 -22
c-34 -32 -51 -39 -25 -10 16 17 32 30 34 27 2 -2 -2 -10 -9 -17z m-3875 -23
c-7 -18 -8 -18 -14 1 -9 23 -1 39 11 27 6 -6 6 -18 3 -28z m1969 -74 c-8 -11
-16 14 -19 61 l-3 53 13 -55 c7 -30 11 -57 9 -59z m-1566 77 c-3 -8 -6 -5 -6
6 -1 11 2 17 5 13 3 -3 4 -12 1 -19z m1113 12 c0 -5 -2 -10 -4 -10 -3 0 -8 5
-11 10 -3 6 -1 10 4 10 6 0 11 -4 11 -10z m-1234 -27 c-10 -10 -19 5 -10 18 6
11 8 11 12 0 2 -7 1 -15 -2 -18z m1754 -27 c-10 -33 -40 -51 -40 -25 0 5 5 7
10 4 6 -3 10 -2 10 4 0 5 5 22 10 37 15 39 24 22 10 -20z m-30 14 c0 -5 -5
-10 -11 -10 -5 0 -7 5 -4 10 3 6 8 10 11 10 2 0 4 -4 4 -10z m-1750 -10 c0 -5
-4 -10 -10 -10 -5 0 -10 5 -10 10 0 6 5 10 10 10 6 0 10 -4 10 -10z m1627 -27
c-3 -10 -5 -4 -5 12 0 17 2 24 5 18 2 -7 2 -21 0 -30z m-357 6 c0 -6 -4 -7
-10 -4 -5 3 -10 11 -10 16 0 6 5 7 10 4 6 -3 10 -11 10 -16z m-1225 2 c3 -5 1
-12 -5 -16 -5 -3 -10 1 -10 9 0 18 6 21 15 7z m-85 -5 c0 -2 -7 -9 -15 -16
-12 -10 -15 -10 -15 4 0 9 7 16 15 16 8 0 15 -2 15 -4z m-860 -82 c0 -7 -42
16 -62 34 -36 31 -17 33 22 2 22 -17 40 -34 40 -36z m1010 56 c0 -5 -4 -10
-10 -10 -5 0 -10 5 -10 10 0 6 5 10 10 10 6 0 10 -4 10 -10z m1550 -20 c0 -28
37 -26 46 3 6 20 7 21 14 3 8 -24 1 -76 -11 -76 -8 0 -13 15 -10 33 0 4 -15 7
-34 7 -31 0 -35 3 -35 25 0 16 6 25 15 25 8 0 15 -9 15 -20z m2090 -10 c-24
-18 -60 -33 -60 -24 0 4 72 43 80 43 3 0 -6 -8 -20 -19z m-3920 -6 c0 -17 -22
-14 -28 4 -2 7 3 12 12 12 9 0 16 -7 16 -16z m-1495 -18 c50 -8 117 -24 150
-35 33 -11 49 -18 35 -16 -23 5 -183 37 -275 55 -70 13 -4 10 90 -4z m1573 2
c-2 -6 -10 -14 -16 -16 -7 -2 -10 2 -6 12 7 18 28 22 22 4z m-1073 -16 c-3 -3
-11 0 -18 7 -9 10 -8 11 6 5 10 -3 15 -9 12 -12z m2835 -15 c12 -4 11 -6 -2
-6 -18 -1 -26 -21 -9 -21 5 0 11 -13 13 -30 6 -39 0 -38 -18 5 -14 35 -20 89
-6 69 4 -6 14 -14 22 -17z m1990 9 c0 -2 -8 -10 -17 -17 -16 -13 -17 -12 -4 4
13 16 21 21 21 13z m-4861 -33 c36 -9 60 -18 53 -21 -18 -6 -102 16 -132 34
-15 9 -17 13 -6 9 10 -3 49 -13 85 -22z m1453 22 c3 -3 1 -23 -4 -45 -9 -34
-13 -38 -37 -36 -16 2 -27 10 -30 22 -3 16 -1 17 13 5 20 -17 26 -12 30 25 2
16 4 30 5 32 2 4 18 2 23 -3z m54 -19 c20 -20 18 -26 -9 -26 -16 0 -23 6 -23
20 0 24 12 26 32 6z m2725 -3 c13 -16 12 -17 -3 -4 -17 13 -22 21 -14 21 2 0
10 -8 17 -17z m584 -3 c-3 -5 -16 -15 -28 -21 -19 -9 -19 -8 3 10 28 23 34 26
25 11z m-5038 -6 c-3 -3 -12 -4 -19 -1 -8 3 -5 6 6 6 11 1 17 -2 13 -5z m80
-20 c-3 -3 -12 -4 -19 -1 -8 3 -5 6 6 6 11 1 17 -2 13 -5z m108 -24 c17 -5 45
-11 63 -14 38 -5 56 -16 26 -16 -25 0 -164 37 -172 45 -7 7 29 0 83 -15z
m1546 -33 c-8 -8 -11 -7 -11 4 0 20 13 34 18 19 3 -7 -1 -17 -7 -23z m1993 18
c4 -10 -1 -15 -14 -15 -13 0 -18 5 -14 15 4 8 10 15 14 15 4 0 10 -7 14 -15z
m-3677 -11 c-3 -3 -12 -4 -19 -1 -8 3 -5 6 6 6 11 1 17 -2 13 -5z m2671 -54
c0 -9 -3 -7 -8 5 -5 11 -8 29 -8 40 0 16 2 15 8 -5 4 -14 8 -32 8 -40z m-2470
21 c57 -12 113 -21 125 -21 12 0 31 -7 41 -15 24 -18 15 -18 -56 -4 -164 34
-244 53 -253 62 -6 6 -1 8 15 4 14 -2 71 -14 128 -26z m127 19 c4 -7 -3 -8
-22 -4 -38 9 -42 14 -10 14 14 0 29 -5 32 -10z m638 -10 c-3 -12 -8 -19 -11
-16 -5 6 5 36 12 36 2 0 2 -9 -1 -20z m1434 -12 c-3 -7 -5 -2 -5 12 0 14 2 19
5 13 2 -7 2 -19 0 -25z m1373 22 c0 -5 -4 -10 -10 -10 -5 0 -10 5 -10 10 0 6
5 10 10 10 6 0 10 -4 10 -10z m1455 -8 c-50 -31 -125 -56 -125 -43 0 5 15 14
33 21 17 6 46 18 62 25 44 20 65 18 30 -3z m-3655 -32 c0 -5 -2 -10 -4 -10 -3
0 -8 5 -11 10 -3 6 -1 10 4 10 6 0 11 -4 11 -10z m-623 -57 c-3 -10 -5 -2 -5
17 0 19 2 27 5 18 2 -10 2 -26 0 -35z m2438 37 c3 -5 1 -10 -4 -10 -6 0 -11 5
-11 10 0 6 2 10 4 10 3 0 8 -4 11 -10z m-3807 -7 c-15 -2 -42 -2 -60 0 -18 2
-6 4 27 4 33 0 48 -2 33 -4z m5477 -3 c-3 -5 -12 -10 -18 -10 -7 0 -6 4 3 10
19 12 23 12 15 0z m-4834 -26 c46 -14 86 -34 67 -34 -18 0 -144 33 -158 40
-26 16 30 12 91 -6z m3473 0 c9 -3 16 -10 16 -14 0 -12 -33 -5 -38 8 -4 14 0
15 22 6z m-41 -41 c-3 -7 -8 -13 -12 -13 -10 0 -31 37 -24 43 9 10 41 -16 36
-30z m-1947 12 c-3 -20 -16 -31 -16 -13 0 13 8 28 16 28 1 0 1 -7 0 -15z
m-2031 -4 c-11 -4 -42 -5 -70 -1 -49 7 -49 7 20 8 44 0 62 -2 50 -7z m449 -22
c121 -18 246 -59 246 -80 0 -4 -24 3 -52 16 -58 26 -237 57 -463 80 l-140 14
140 -5 c77 -3 198 -14 269 -25z m241 -9 c12 -19 -12 -10 -31 11 -19 22 -19 22
3 10 12 -6 25 -16 28 -21z m1055 -1 c0 -4 -5 -11 -10 -14 -6 -4 -7 -11 -4 -17
4 -6 -1 -8 -12 -6 -11 2 -20 13 -22 24 -2 17 2 22 22 22 15 0 26 -4 26 -9z
m1997 5 c-3 -3 -12 -4 -19 -1 -8 3 -5 6 6 6 11 1 17 -2 13 -5z m426 -14 c9
-10 7 -11 -10 -6 -15 5 -22 2 -25 -9 -2 -14 -7 -12 -25 8 l-21 25 35 -3 c19
-1 40 -8 46 -15z m207 0 c0 -5 -4 -10 -10 -10 -5 0 -10 5 -10 10 0 6 5 10 10
10 6 0 10 -4 10 -10z m-2689 -17 c1 -10 1 -24 0 -30 -1 -7 7 -22 17 -33 12
-13 17 -30 14 -45 -3 -21 -7 -23 -23 -14 -22 12 -26 31 -4 23 20 -8 19 13 -1
24 -18 10 -31 92 -14 92 5 0 11 -8 11 -17z m103 2 c-4 -8 -12 -15 -20 -15 -17
0 -18 17 -1 23 22 9 27 7 21 -8z m-374 -6 c0 -6 7 -9 15 -6 8 4 17 2 20 -4 6
-9 -63 -44 -71 -36 -8 7 15 57 26 57 5 0 10 -5 10 -11z m2045 1 c3 -5 -1 -10
-9 -10 -9 0 -16 5 -16 10 0 6 4 10 9 10 6 0 13 -4 16 -10z m-728 -47 c-3 -10
-5 -2 -5 17 0 19 2 27 5 18 2 -10 2 -26 0 -35z m2852 23 c-2 -2 -17 -6 -34
-10 -22 -5 -26 -4 -15 4 14 9 59 15 49 6z m-3802 -38 c-3 -7 -5 -2 -5 12 0 14
2 19 5 13 2 -7 2 -19 0 -25z m-1167 -18 c0 -5 -5 -10 -11 -10 -5 0 -7 5 -4 10
3 6 8 10 11 10 2 0 4 -4 4 -10z m612 -12 c-7 -7 -12 -8 -12 -2 0 14 12 26 19
19 2 -3 -1 -11 -7 -17z m188 -9 c0 -4 -6 -14 -13 -21 -17 -18 -34 -64 -42
-115 -10 -66 -30 -68 -22 -2 10 80 36 145 58 145 11 0 19 -3 19 -7z m1200 1
c0 -5 -7 -7 -15 -4 -8 4 -15 8 -15 10 0 2 7 4 15 4 8 0 15 -4 15 -10z m-2825
-15 c11 -2 33 -4 50 -4 22 -1 26 -4 17 -13 -8 -8 -18 -8 -34 -2 -13 5 -33 8
-45 6 -23 -3 -41 -32 -19 -32 7 0 23 -9 36 -20 18 -16 21 -23 12 -32 -9 -9
-12 -9 -12 1 0 8 -7 10 -20 6 -14 -4 -20 -2 -18 6 2 7 -7 17 -18 24 -37 19
-54 37 -54 57 0 20 11 20 105 3z m279 -7 c12 -6 40 -28 63 -50 22 -22 45 -38
50 -35 5 3 8 -11 7 -33 -2 -34 1 -38 27 -44 16 -3 29 -12 29 -20 0 -8 17 -20
38 -26 20 -7 42 -17 47 -23 7 -7 5 -8 -7 -4 -84 30 -304 42 -416 23 -50 -8
-54 -7 -59 13 -7 26 -5 26 -61 -6 -44 -25 -71 -50 -72 -64 0 -7 96 -51 161
-74 51 -18 182 -94 235 -136 24 -19 41 -26 48 -20 6 5 28 12 49 16 20 4 37 11
37 16 0 13 -100 57 -106 47 -3 -5 -12 -4 -20 3 -11 9 -12 14 -3 19 17 11 2 29
-19 24 -19 -5 -82 45 -82 65 0 8 -8 10 -22 5 -20 -6 -21 -5 -9 10 11 14 11 16
-1 16 -19 0 -68 23 -68 33 0 12 105 8 172 -7 35 -8 95 -17 134 -20 84 -7 104
-13 104 -33 0 -10 -7 -14 -20 -10 -11 3 -20 1 -20 -4 0 -5 -15 -6 -32 -3 -28
5 -31 4 -17 -8 18 -15 18 -74 -1 -70 -22 5 -40 30 -34 46 5 13 -2 16 -32 17
-29 0 -34 2 -19 8 19 8 19 8 -1 19 -12 6 -24 8 -28 5 -3 -3 -6 -1 -6 5 0 7
-14 12 -32 12 l-33 0 31 -19 c18 -11 39 -30 48 -43 13 -18 18 -20 25 -10 6 10
10 7 15 -13 4 -17 17 -30 35 -36 27 -10 61 -47 74 -81 7 -20 -5 -22 -83 -18
-40 2 -43 0 -31 -14 7 -9 21 -16 30 -17 10 0 11 -2 4 -6 -7 -2 -60 25 -119 61
-58 36 -108 66 -111 66 -3 0 -14 11 -24 24 -15 19 -30 24 -76 28 -44 3 -81 16
-151 51 -51 26 -108 58 -125 71 -18 13 -42 27 -54 31 -13 3 -23 11 -23 16 0
20 60 7 114 -26 32 -19 61 -35 64 -35 4 0 23 16 43 36 21 21 60 44 90 54 53
18 78 42 42 38 -10 0 -31 0 -47 0 l-30 2 21 19 c11 11 29 18 39 15 11 -2 25 0
33 5 12 8 12 12 2 25 -11 13 -11 17 3 22 20 8 106 -45 99 -62 -3 -7 18 -20 52
-33 61 -23 95 -27 95 -11 0 6 -4 10 -8 10 -5 0 -19 9 -32 20 -13 11 -28 19
-34 17 -5 -2 -24 15 -41 37 -17 23 -46 49 -65 59 -31 15 -36 15 -46 2 -13 -17
-34 -20 -34 -5 0 29 141 35 194 8z m189 -32 c57 -14 87 -30 87 -47 0 -5 -15
-6 -32 -2 -18 3 -30 2 -25 -2 4 -5 26 -11 50 -14 27 -4 43 -11 45 -22 8 -44
-141 -16 -162 30 -5 11 -13 21 -18 21 -4 0 -8 6 -8 14 0 8 -9 18 -20 21 -28 9
-25 29 3 22 12 -3 48 -13 80 -21z m-395 -13 c-4 -22 -22 -20 -26 1 -2 10 3 16
13 16 10 0 15 -7 13 -17z m3192 7 c0 -5 -4 -10 -9 -10 -5 0 -11 -7 -13 -15 -2
-9 -8 -12 -16 -6 -11 6 -10 11 3 25 18 18 35 21 35 6z m-303 -7 c-9 -2 -15 -9
-12 -14 4 -5 6 -57 7 -117 0 -59 5 -115 10 -126 7 -13 7 -16 -1 -12 -7 5 -11
-2 -11 -16 0 -18 2 -20 10 -8 8 12 10 12 9 -5 0 -11 -4 -29 -8 -39 -7 -19 -8
-18 -14 5 -4 13 -10 95 -14 182 l-6 157 24 -1 c17 -1 19 -3 6 -6z m-950 -39
c-3 -3 -12 -4 -19 -1 -8 3 -5 6 6 6 11 1 17 -2 13 -5z m1233 -14 c0 -12 -28
-25 -36 -17 -9 9 6 27 22 27 8 0 14 -5 14 -10z m-1350 -32 c0 -5 -4 -8 -10 -8
-5 0 -10 10 -10 23 0 18 2 19 10 7 5 -8 10 -18 10 -22z m150 11 c0 -11 -4 -17
-10 -14 -5 3 -10 13 -10 21 0 8 5 14 10 14 6 0 10 -9 10 -21z m860 -81 c0 -81
-3 -99 -12 -90 -14 14 -19 102 -5 102 4 0 5 6 1 12 -12 20 -12 51 0 65 6 7 12
12 14 13 1 0 2 -46 2 -102z m830 81 c0 16 19 14 36 -4 14 -13 13 -15 -9 -15
-33 0 -57 10 -57 22 0 6 6 5 15 -2 10 -9 15 -9 15 -1z m-720 -38 c0 -5 -10
-11 -22 -14 -22 -6 -22 -6 -4 8 23 17 26 18 26 6z m1395 -40 c3 -19 8 -38 11
-43 3 -4 1 -8 -5 -8 -5 0 -12 9 -16 19 -3 11 -16 22 -28 24 l-22 4 23 8 c12 4
22 14 22 23 0 25 8 9 15 -27z m-805 -1 c0 -16 -2 -30 -4 -30 -2 0 -6 14 -8 30
-3 17 -1 30 4 30 4 0 8 -13 8 -30z m-494 0 c8 0 26 -11 39 -25 34 -33 33 -77
-2 -105 -69 -54 -157 44 -103 113 13 17 28 26 37 23 8 -3 21 -6 29 -6z m-1276
-30 c0 -5 -4 -10 -10 -10 -5 0 -10 5 -10 10 0 6 5 10 10 10 6 0 10 -4 10 -10z
m19 -36 c-14 -18 -24 -11 -15 11 3 9 11 13 16 10 8 -5 7 -11 -1 -21z m-29 1
c0 -8 -7 -15 -15 -15 -9 0 -12 6 -9 15 4 8 10 15 15 15 5 0 9 -7 9 -15z m310
0 c0 -7 8 -19 18 -25 16 -11 16 -11 -1 -6 -10 3 -31 6 -45 6 l-27 1 23 12 c12
7 19 16 16 20 -4 4 -2 7 4 7 7 0 12 -7 12 -15z m1150 -92 c-1 -64 -2 -66 -15
-43 -7 14 -9 27 -4 28 20 8 7 19 -16 14 -14 -2 -25 -2 -25 1 0 19 15 37 31 37
10 0 19 7 19 15 0 8 2 15 5 15 3 0 5 -30 5 -67z m-1005 47 c-3 -5 -11 -10 -16
-10 -6 0 -7 5 -4 10 3 6 11 10 16 10 6 0 7 -4 4 -10z m-455 -6 c0 -8 -19 -13
-24 -6 -3 5 1 9 9 9 8 0 15 -2 15 -3z m357 -36 c-1 -16 -3 -16 -24 -3 -21 14
-23 14 -23 0 0 -8 -6 -15 -13 -15 -7 0 -13 8 -13 18 0 15 8 19 37 18 29 -1 37
-5 36 -18z m708 12 c3 -5 1 -10 -4 -10 -6 0 -11 5 -11 10 0 6 2 10 4 10 3 0 8
-4 11 -10z m-1081 -27 c-4 -16 -12 -37 -17 -48 -6 -11 -10 -26 -8 -34 1 -7 -2
-10 -8 -6 -16 9 -13 39 7 79 20 42 35 47 26 9z m4356 -4 c0 -5 -4 -9 -10 -9
-5 0 -10 7 -10 16 0 8 5 12 10 9 6 -3 10 -10 10 -16z m75 11 c-3 -5 -13 -10
-21 -10 -8 0 -12 5 -9 10 3 6 13 10 21 10 8 0 12 -4 9 -10z m-3025 -10 c0 -5
-2 -10 -4 -10 -3 0 -8 5 -11 10 -3 6 -1 10 4 10 6 0 11 -4 11 -10z m2900 0 c0
-5 -10 -12 -22 -15 -42 -9 -182 -43 -267 -65 -53 -13 -87 -18 -93 -12 -6 6 6
14 34 20 23 6 106 26 183 46 156 39 165 40 165 26z m-2936 -57 c6 -17 3 -22
-11 -20 -14 1 -18 9 -19 34 0 27 2 31 12 21 6 -7 15 -23 18 -35z m-217 -20
c-3 -10 -5 -4 -5 12 0 17 2 24 5 18 2 -7 2 -21 0 -30z m3281 -1 c-26 -5 -33 3
-17 21 12 12 15 12 26 -2 10 -13 8 -17 -9 -19z m-3312 -88 c4 -40 3 -64 -3
-64 -12 0 -33 97 -33 149 l0 36 15 -28 c8 -16 18 -57 21 -93z m1500 89 c-10
-10 -19 5 -10 18 6 11 8 11 12 0 2 -7 1 -15 -2 -18z m-1137 -31 c-1 -17 -3
-21 -6 -9 -5 19 -19 23 -25 6 -2 -6 -13 -9 -23 -7 -17 4 -14 7 12 18 19 7 30
17 26 23 -3 6 -1 7 5 3 7 -4 11 -19 11 -34z m-3096 -45 c2 -20 6 -39 10 -43 3
-4 4 -17 1 -28 -4 -17 4 -29 38 -53 24 -17 54 -42 68 -55 60 -57 184 -138 354
-233 105 -58 217 -143 159 -120 -10 4 -38 8 -63 11 -25 2 -74 9 -109 15 -55
10 -104 9 -253 -4 -10 -1 -18 -5 -18 -10 0 -5 -8 -7 -19 -4 -10 2 -52 -4 -92
-14 -80 -20 -149 -25 -149 -10 0 6 5 13 10 16 18 11 10 33 -16 42 l-26 9 38
26 c42 30 71 26 33 -5 l-24 -20 61 6 c33 4 69 10 79 13 12 5 16 4 12 -3 -4 -6
5 -13 21 -16 37 -7 113 3 106 14 -3 5 -10 7 -15 4 -5 -4 -9 -1 -9 6 0 7 8 9
23 5 12 -4 73 -11 136 -16 63 -5 130 -12 150 -15 l36 -6 -31 27 c-29 25 -84
60 -169 105 -22 12 -79 45 -126 75 -47 30 -90 54 -96 54 -5 0 -19 14 -32 31
-12 16 -44 43 -71 60 -32 19 -52 40 -59 61 -12 34 -6 51 10 28 8 -11 9 0 5 36
-4 28 -3 54 1 57 12 12 24 -9 26 -46z m5470 41 c4 -10 8 -9 16 2 8 11 11 11
11 2 0 -7 -6 -14 -12 -16 -13 -4 -156 -58 -170 -64 -11 -5 -10 45 0 52 4 2 14
1 21 -3 8 -5 29 1 55 15 46 26 72 30 79 12z m-2563 -38 c11 -11 20 -23 20 -27
0 -4 -5 -2 -12 5 -9 9 -14 7 -25 -6 -11 -15 -13 -13 -11 16 1 17 4 32 5 32 2
0 12 -9 23 -20z m110 -10 c28 0 25 -19 -6 -30 -39 -15 -71 -3 -76 30 -4 27 -4
27 29 14 18 -8 42 -14 53 -14z m680 15 c0 -8 -4 -15 -10 -15 -5 0 -7 7 -4 15
4 8 8 15 10 15 2 0 4 -7 4 -15z m116 -7 c-3 -13 -6 -29 -6 -35 0 -7 -5 -13
-11 -13 -6 0 -9 9 -6 20 3 10 0 21 -7 24 -6 2 -3 5 7 5 10 1 15 6 12 11 -3 6
-1 10 6 10 7 0 9 -9 5 -22z m124 -18 c0 -5 -7 -7 -15 -4 -8 4 -15 8 -15 10 0
2 7 4 15 4 8 0 15 -4 15 -10z m-3690 -33 c-1 -5 19 -30 44 -57 66 -71 56 -75
-14 -5 -32 32 -57 62 -54 67 7 11 26 6 24 -5z m-108 -51 c26 -19 44 -36 41
-39 -9 -9 27 -41 61 -54 17 -6 25 -12 19 -12 -25 -2 -12 -21 25 -37 21 -9 31
-18 24 -21 -20 -8 -80 37 -169 127 -46 46 -83 85 -83 87 0 5 28 -12 82 -51z
m200 30 c15 -22 7 -24 -32 -5 -22 11 -40 22 -40 25 0 10 65 -8 72 -20z m5087
-21 c-9 -9 -19 -11 -29 -5 -12 7 -10 11 10 18 31 12 39 6 19 -13z m-4979 -25
c0 -5 -2 -10 -4 -10 -3 0 -8 5 -11 10 -3 6 -1 10 4 10 6 0 11 -4 11 -10z
m2615 -50 c-16 -4 -39 -8 -50 -8 l-20 -1 20 9 c11 5 34 8 50 8 l30 0 -30 -8z
m2132 -6 c-3 -3 -12 -4 -19 -1 -8 3 -5 6 6 6 11 1 17 -2 13 -5z m-4856 -131
c3 1 1 -2 -3 -8 -5 -5 -15 -2 -26 9 -16 18 -16 18 4 8 12 -6 23 -10 25 -9z
m150 -50 c13 -16 12 -17 -3 -4 -10 7 -18 15 -18 17 0 8 8 3 21 -13z m5269 0
c0 -14 -19 -38 -25 -32 -8 8 5 39 16 39 5 0 9 -3 9 -7z m-5587 -30 c-3 -7 -9
-13 -13 -13 -4 0 -10 6 -13 13 -3 7 3 13 13 13 10 0 16 -6 13 -13z m4049 -39
c38 -6 52 -22 39 -43 -6 -10 -20 -9 -60 5 -101 33 -230 6 -322 -67 -22 -17
-42 -29 -45 -26 -8 8 78 77 130 104 80 41 130 46 258 27z m-4167 -4 c-3 -5
-14 -10 -23 -10 -15 0 -15 2 -2 10 20 13 33 13 25 0z m5305 -65 c0 -5 -96 -67
-130 -84 -24 -11 -24 -11 -5 4 36 28 120 84 128 84 4 1 7 -1 7 -4z m-5530 -21
c0 -9 -110 -56 -122 -52 -7 3 12 16 42 31 54 26 80 33 80 21z m4977 -36 c-3
-7 -5 -2 -5 12 0 14 2 19 5 13 2 -7 2 -19 0 -25z m-4175 -48 c52 -18 105 -43
120 -58 31 -28 29 -45 -1 -18 -23 21 -127 50 -143 40 -6 -4 -8 -3 -5 3 8 13
-17 20 -63 19 -20 -1 -34 -6 -33 -12 1 -8 -28 -10 -95 -6 -132 6 -247 -15
-348 -64 -113 -54 -237 -176 -307 -301 -28 -50 -53 -90 -55 -88 -7 7 68 143
111 200 56 75 215 225 238 225 5 0 9 9 9 21 0 19 -4 20 -42 14 -43 -7 -186
-49 -223 -65 -38 -16 -110 -29 -118 -21 -5 5 13 14 40 20 45 12 47 14 29 27
-18 13 -14 14 38 14 31 0 69 6 84 14 90 45 330 77 534 71 122 -3 148 -7 230
-35z m5213 1 c-3 -6 -11 -8 -17 -5 -6 4 -5 9 3 15 16 10 23 4 14 -10z m50 0
c-3 -6 -11 -11 -16 -11 -5 0 -4 6 3 14 14 16 24 13 13 -3z m55 -5 c0 -3 -4 -8
-10 -11 -5 -3 -10 -1 -10 4 0 6 5 11 10 11 6 0 10 -2 10 -4z m-1123 -48 c-3
-8 -6 -5 -6 6 -1 11 2 17 5 13 3 -3 4 -12 1 -19z m-4282 2 c3 -5 -1 -10 -9
-10 -9 0 -16 5 -16 10 0 6 4 10 9 10 6 0 13 -4 16 -10z m-956 -31 c-11 -11
-23 -18 -26 -15 -9 8 17 36 33 36 10 0 7 -7 -7 -21z m1099 9 c-1 -7 2 -23 6
-36 11 -33 2 -37 -18 -8 -8 14 -13 32 -10 40 7 19 26 21 22 4z m4609 -5 c2 -6
-3 -13 -11 -16 -10 -4 -14 0 -13 14 1 20 18 21 24 2z m63 7 c-36 -11 -50 -11
-50 0 0 6 17 10 38 9 33 -1 34 -2 12 -9z m-5736 -25 c-4 -8 -8 -15 -10 -15 -2
0 -4 7 -4 15 0 8 4 15 10 15 5 0 7 -7 4 -15z m5856 0 c0 -12 4 -13 19 -6 17 9
19 6 23 -23 5 -48 -15 -63 -41 -29 -12 14 -21 29 -21 34 0 4 -3 14 -6 23 -4
11 -1 16 10 16 9 0 16 -7 16 -15z m-4892 -34 c29 -13 51 -25 50 -27 -2 -1 -30
7 -63 18 -48 16 -76 19 -140 15 -195 -13 -444 -169 -547 -344 -11 -18 -22 -33
-24 -33 -7 0 26 61 73 133 88 137 176 208 306 248 92 27 271 22 345 -10z
m-215 -51 c-36 -21 -43 -40 -16 -40 15 0 14 -2 -3 -15 -10 -8 -25 -15 -33 -15
-35 0 -270 -216 -263 -241 1 -6 -15 -47 -36 -92 -68 -142 -89 -191 -96 -221
-4 -15 -9 -26 -11 -24 -5 5 21 98 59 205 33 98 104 230 139 259 16 13 25 28
22 34 -4 6 -1 9 7 8 7 -2 12 2 11 9 -5 27 185 152 232 153 16 0 13 -4 -12 -20z
m57 -44 c0 -3 -25 -19 -56 -37 -58 -33 -174 -138 -174 -158 0 -16 32 -13 60 6
14 9 58 48 98 86 78 75 102 82 58 18 -25 -35 -29 -53 -35 -150 -4 -61 -11
-114 -16 -118 -4 -5 -5 13 -2 40 4 29 3 47 -4 47 -6 0 -7 13 -4 34 4 19 4 44
0 56 -9 29 -24 16 -75 -71 -22 -38 -44 -69 -48 -69 -4 0 -13 -19 -20 -43 -7
-24 -22 -56 -33 -73 l-20 -29 6 44 c4 24 16 52 28 64 13 13 17 22 9 25 -8 2
-7 8 4 19 16 16 15 34 -3 40 -6 2 -14 -4 -17 -14 -3 -10 -4 -6 -2 10 2 18 -1
27 -10 27 -20 0 -17 11 14 61 35 54 89 102 173 152 66 38 69 40 69 33z m670
-116 c0 -17 51 -24 61 -9 6 10 9 8 9 -9 0 -13 4 -20 10 -17 6 3 10 2 10 -4 0
-15 -23 -26 -28 -13 -6 20 -52 15 -52 -6 0 -26 -36 -45 -60 -32 -24 13 -26 28
-5 36 10 4 13 13 10 24 -4 12 1 22 12 29 23 13 33 14 33 1z m4590 -20 c8 -5
11 -10 5 -10 -5 0 -21 10 -35 21 -24 20 -5 13 30 -11z m-500 -40 c0 -5 -12
-10 -26 -10 -14 0 -23 4 -19 10 3 6 15 10 26 10 10 0 19 -4 19 -10z m-4365
-28 c-2 -10 -4 -22 -4 -29 -1 -7 -8 -10 -16 -7 -21 8 -15 62 6 56 10 -2 16
-11 14 -20z m-345 -12 c8 -5 11 -12 8 -16 -10 -9 -38 3 -38 16 0 12 10 13 30
0z m450 0 c0 -5 -5 -10 -11 -10 -5 0 -7 5 -4 10 3 6 8 10 11 10 2 0 4 -4 4
-10z m4850 0 c0 -5 -2 -10 -4 -10 -3 0 -8 5 -11 10 -3 6 -1 10 4 10 6 0 11 -4
11 -10z m-4670 -20 c0 -5 8 -10 18 -11 9 0 4 -5 -13 -11 -16 -6 -35 -15 -41
-20 -8 -5 -14 -3 -18 8 -11 28 -7 35 13 24 14 -7 22 -7 27 2 4 7 3 8 -4 4 -7
-4 -12 -2 -12 3 0 6 7 11 15 11 8 0 15 -4 15 -10z m-340 -10 c0 -5 -4 -10 -10
-10 -5 0 -10 5 -10 10 0 6 5 10 10 10 6 0 10 -4 10 -10z m236 -37 c-7 -7 -36
16 -36 29 0 6 7 8 15 4 8 -3 16 0 16 7 1 7 4 1 6 -11 3 -13 2 -26 -1 -29z
m4844 17 c0 -5 -2 -10 -4 -10 -3 0 -8 5 -11 10 -3 6 -1 10 4 10 6 0 11 -4 11
-10z m-5355 -18 c-3 -3 -11 0 -18 7 -9 10 -8 11 6 5 10 -3 15 -9 12 -12z m505
-28 c0 -10 -18 -3 -38 15 -33 27 -26 36 8 11 17 -12 30 -23 30 -26z m4519 28
c19 -10 43 -35 58 -60 13 -24 31 -56 39 -70 13 -22 10 -20 -17 8 -19 20 -55
53 -81 74 -27 21 -48 45 -48 52 0 18 7 17 49 -4z m-165 -20 c49 -29 40 -41
-11 -15 -42 21 -57 24 -118 19 l-70 -5 45 14 c52 16 113 11 154 -13z m-5502
-4 c-7 -7 -12 -8 -12 -2 0 14 12 26 19 19 2 -3 -1 -11 -7 -17z m1209 -26 c-6
-2 -11 -12 -11 -23 0 -35 -15 -20 -16 16 0 26 3 34 13 31 7 -3 14 0 14 7 1 7
4 3 6 -8 3 -10 0 -21 -6 -23z m-164 6 c-3 -8 -6 -5 -6 6 -1 11 2 17 5 13 3 -3
4 -12 1 -19z m-127 -4 c0 -8 -4 -12 -10 -9 -5 3 -10 10 -10 16 0 5 5 9 10 9 6
0 10 -7 10 -16z m4321 -13 c34 -11 62 -15 74 -10 46 18 153 6 162 -18 9 -24
-4 -26 -56 -8 -48 16 -91 14 -91 -5 0 -4 14 -13 30 -19 20 -6 30 -17 30 -30 0
-11 5 -23 10 -26 6 -3 10 -13 10 -22 0 -9 -19 8 -42 37 -40 49 -105 90 -145
90 -11 0 -10 -6 6 -28 12 -17 16 -33 11 -41 -6 -10 -13 -3 -25 23 -10 20 -26
43 -37 50 -14 10 -16 15 -6 19 7 3 13 6 14 6 0 1 25 -7 55 -18z m367 -11 c7
-11 18 -20 25 -20 7 0 21 -15 31 -32 10 -18 28 -41 40 -50 11 -9 18 -19 15
-23 -9 -9 -158 88 -161 105 -3 13 18 39 32 40 3 0 11 -9 18 -20z m-5001 -49
c0 -11 -5 -18 -9 -15 -4 3 -5 11 -1 19 7 21 12 19 10 -4z m5493 -73 c0 -14
-18 -9 -24 8 -11 28 -6 39 9 20 8 -11 15 -23 15 -28z m169 0 c11 -18 11 -18
-13 -3 -29 20 -46 51 -17 33 10 -6 23 -20 30 -30z m-5465 16 c3 -9 6 -23 6
-32 -1 -15 -3 -14 -15 2 -17 22 -20 46 -6 46 5 0 12 -7 15 -16z m-267 -19 c-4
-8 -2 -17 3 -20 6 -4 10 -17 10 -31 0 -22 -3 -23 -20 -14 -12 6 -19 19 -17 32
1 11 -4 23 -10 25 -9 3 -13 -7 -14 -29 -1 -42 -13 -76 -22 -61 -4 7 -3 14 3
18 5 3 10 19 10 36 0 27 -3 29 -35 29 -19 0 -35 4 -35 9 0 11 29 18 89 20 34
1 42 -2 38 -14z m4200 -44 c0 -22 -4 -38 -8 -35 -5 3 -9 12 -9 21 0 9 -7 24
-16 34 -20 23 -10 43 15 29 13 -6 18 -21 18 -49z m361 34 c-3 -3 -9 2 -12 12
-6 14 -5 15 5 6 7 -7 10 -15 7 -18z m-428 -15 c0 -5 -7 -10 -15 -10 -8 0 -15
5 -15 10 0 6 7 10 15 10 8 0 15 -4 15 -10z m454 -35 l17 -30 -20 24 c-12 13
-21 28 -21 34 0 12 0 11 24 -28z m1036 -45 c23 -45 24 -50 10 -50 -5 0 -10 6
-10 14 0 8 -4 16 -8 18 -10 3 -26 58 -17 58 2 0 14 -18 25 -40z m-681 -75 c30
-34 36 -49 14 -34 -31 19 -63 73 -62 105 0 28 1 27 15 -11 8 -21 23 -48 33
-60z m-5059 65 c-6 -11 -12 -20 -14 -20 -2 0 -2 9 1 20 3 11 9 20 15 20 5 0 4
-9 -2 -20z m4741 3 c13 -16 12 -17 -3 -4 -17 13 -22 21 -14 21 2 0 10 -8 17
-17z m-4615 -49 c-3 -8 -10 -14 -16 -14 -7 0 -8 6 -2 18 5 9 7 24 5 32 -3 9 0
8 7 -3 7 -10 9 -25 6 -33z m5538 -4 c41 -43 53 -60 43 -60 -1 0 -27 25 -57 55
-30 30 -49 55 -44 55 6 0 32 -22 58 -50z m-883 13 c13 -16 12 -17 -3 -4 -17
13 -22 21 -14 21 2 0 10 -8 17 -17z m-5162 -62 c-16 -54 -24 -46 -9 9 6 23 14
40 16 37 3 -3 0 -24 -7 -46z m6161 6 c0 -24 -3 -28 -10 -17 -13 20 -13 63 0
55 6 -3 10 -21 10 -38z m-5550 -3 c0 -8 -5 -12 -10 -9 -6 4 -8 11 -5 16 9 14
15 11 15 -7z"/>
<path d="M5579 6637 c22 -24 29 -43 11 -32 -5 3 -10 3 -10 -2 0 -4 -74 -8
-165 -8 -92 0 -165 4 -165 9 0 5 -9 1 -20 -9 -19 -18 -20 -17 -20 6 l0 24 -20
-25 -20 -25 0 29 c0 20 -4 27 -14 23 -7 -3 -19 0 -25 6 -14 14 -30 -6 -32 -38
0 -11 -3 -14 -6 -7 -8 19 -23 14 -23 -8 0 -11 -4 -20 -10 -20 -5 0 -18 -8 -28
-18 -23 -23 -45 -82 -31 -82 5 0 9 -4 9 -9 0 -5 14 -23 30 -41 23 -24 30 -42
30 -71 0 -25 7 -46 19 -58 10 -10 24 -34 30 -54 28 -85 178 -152 341 -152 94
0 183 36 194 78 5 20 15 28 42 33 38 7 81 43 85 71 8 54 -26 80 -111 86 -30 3
-86 12 -125 20 -38 9 -87 18 -108 22 -42 7 -56 27 -36 51 11 13 28 15 98 10
143 -9 212 -21 208 -38 -2 -12 60 -30 81 -23 6 2 12 16 12 31 0 67 -130 211
-212 234 l-31 9 22 -22z m-41 -307 c23 -10 42 -21 42 -23 0 -3 -33 3 -72 13
-40 10 -84 21 -98 23 -14 2 0 5 30 5 35 1 70 -5 98 -18z m-210 -78 c2 -7 -5
-12 -17 -12 -14 0 -19 5 -14 15 6 17 25 15 31 -3z m-157 -25 c-8 -8 -11 -7
-11 4 0 9 3 19 7 23 4 4 9 2 11 -4 3 -7 -1 -17 -7 -23z m374 23 c3 -5 4 -10 1
-10 -2 0 -12 -3 -20 -6 -12 -5 -15 -2 -10 10 7 18 20 21 29 6z m-305 -50 c0
-5 -2 -10 -4 -10 -3 0 -8 5 -11 10 -3 6 -1 10 4 10 6 0 11 -4 11 -10z m225 2
c17 -5 55 -6 87 -3 99 12 113 -11 22 -37 -56 -16 -96 -15 -146 5 -52 20 -52
19 -43 32 8 13 39 14 80 3z"/>
<path d="M4710 6619 c0 -31 -16 -42 -41 -28 -32 17 -232 18 -283 2 -52 -17
-86 -17 -86 2 0 23 -14 18 -67 -23 -96 -76 -152 -161 -153 -230 0 -21 -4 -31
-11 -27 -7 5 -8 -4 -4 -28 4 -20 3 -37 -3 -41 -7 -4 -5 -17 4 -35 13 -27 21
-30 82 -36 87 -9 99 -12 106 -33 24 -67 60 -84 201 -98 62 -5 79 -3 135 19 36
14 81 30 101 36 64 20 124 65 136 102 6 19 28 79 48 134 37 100 48 176 27 183
-22 7 -72 56 -72 70 0 8 -6 12 -14 9 -8 -3 -17 1 -20 10 -6 14 -8 14 -20 -3
-14 -18 -15 -18 -40 5 -18 17 -26 20 -26 10z m-230 -207 c0 -12 -73 -42 -101
-42 -13 0 -31 4 -39 10 -12 8 -12 10 4 16 53 21 136 30 136 16z m13 -49 c-7
-2 -21 -2 -30 0 -10 3 -4 5 12 5 17 0 24 -2 18 -5z m57 -41 c0 -4 -30 -9 -67
-9 -47 -2 -62 1 -48 7 25 11 115 13 115 2z m-10 -62 c0 -5 -4 -10 -10 -10 -5
0 -10 5 -10 10 0 6 5 10 10 10 6 0 10 -4 10 -10z m85 -22 c35 -16 31 -28 -10
-28 -28 0 -35 4 -35 20 0 23 9 25 45 8z m-218 -58 c48 0 53 -2 39 -15 -17 -18
-56 -19 -110 -4 -29 8 -36 13 -25 20 8 5 20 7 27 4 8 -3 38 -5 69 -5z m103
-10 c0 -5 -7 -7 -15 -4 -8 4 -15 8 -15 10 0 2 7 4 15 4 8 0 15 -4 15 -10z"/>
<path d="M4609 5862 c-58 -59 -120 -128 -139 -154 -18 -26 -40 -50 -49 -53
-16 -5 -49 -51 -49 -68 0 -4 -8 -19 -17 -33 -14 -22 -14 -27 0 -47 11 -15 13
-34 9 -67 -5 -41 -2 -53 27 -100 18 -29 35 -69 39 -89 6 -41 35 -50 54 -16 6
11 12 22 14 24 1 3 13 -6 27 -19 23 -22 25 -22 25 -4 0 11 7 29 15 41 12 18
22 21 45 16 17 -3 30 -1 30 4 0 13 126 16 150 3 26 -14 60 -4 60 18 0 12 -3
13 -12 4 -17 -17 -47 -15 -54 3 -5 11 -10 12 -24 3 -24 -15 -50 5 -50 38 0 29
25 32 52 7 17 -15 18 -15 18 10 0 33 23 36 44 5 l16 -22 11 32 c12 36 9 35
104 39 164 7 197 4 222 -19 19 -18 23 -19 23 -5 0 28 45 21 59 -9 9 -20 15
-23 25 -15 16 14 26 4 26 -26 0 -18 -5 -23 -27 -23 -16 0 -35 -6 -44 -13 -13
-10 5 -12 89 -10 99 2 106 1 138 -25 18 -14 35 -36 39 -49 7 -31 18 -29 31 5
6 15 21 53 33 85 13 31 24 82 26 114 2 31 9 59 15 63 49 30 -111 240 -264 345
-47 32 -59 37 -66 25 -13 -20 -13 -73 0 -65 14 9 41 -20 105 -115 31 -47 69
-97 83 -112 l26 -28 -28 0 c-19 0 -25 -4 -19 -12 4 -8 -3 -7 -17 3 -14 9 -36
22 -50 30 -14 8 -35 22 -47 33 -12 10 -29 16 -38 12 -9 -3 -14 -2 -10 3 3 5
-5 26 -17 45 -19 30 -28 36 -50 33 -27 -3 -27 -3 10 31 21 19 29 31 19 28 -11
-4 -31 3 -47 14 -33 24 -103 26 -140 5 -23 -12 -29 -11 -68 11 -39 23 -44 24
-58 9 -15 -14 -19 -13 -50 10 -50 38 -96 43 -127 14 -30 -29 -64 -50 -96 -58
l-25 -7 37 -41 c43 -47 45 -54 15 -50 -17 1 -27 -7 -39 -31 -19 -37 -64 -76
-78 -67 -5 3 -13 0 -17 -6 -5 -8 -9 -7 -14 2 -6 9 -12 10 -22 2 -7 -5 -21 -13
-31 -16 -25 -9 -8 20 32 56 17 15 31 33 31 41 0 7 9 21 20 31 26 23 45 61 64
129 9 29 32 74 52 100 20 26 34 49 32 52 -3 2 -52 -45 -109 -104z m551 -138
c5 -5 -9 -10 -33 -10 -23 -1 -58 -5 -77 -9 l-35 -6 25 21 c19 16 35 20 68 17
24 -3 48 -9 52 -13z m130 -180 c48 -25 99 -79 86 -91 -3 -4 -25 7 -49 24 -77
56 -108 61 -358 57 -245 -3 -257 -5 -350 -64 -59 -39 -67 -38 -35 4 14 19 26
39 26 43 0 15 180 41 300 42 63 1 116 4 119 6 2 3 51 5 108 5 92 0 109 -3 153
-26z"/>
<path d="M4977 5399 c4 -15 8 -17 14 -8 8 14 3 29 -11 29 -4 0 -6 -9 -3 -21z"/>
<path d="M5175 5320 c-3 -5 -2 -10 4 -10 5 0 13 5 16 10 3 6 2 10 -4 10 -5 0
-13 -4 -16 -10z"/>
<path d="M5123 5303 c9 -2 23 -2 30 0 6 3 -1 5 -18 5 -16 0 -22 -2 -12 -5z"/>
<path d="M4955 5290 c-11 -5 -36 -7 -55 -4 -29 4 -31 3 -13 -5 18 -8 161 -4
151 4 -11 8 -67 11 -83 5z"/>
<path d="M4786 5227 c3 -8 13 -17 22 -20 9 -3 25 -8 35 -12 12 -5 17 -2 17 8
0 9 -10 19 -22 22 -57 16 -58 16 -52 2z"/>
<path d="M4445 5190 c-3 -5 -1 -10 4 -10 6 0 11 5 11 10 0 6 -2 10 -4 10 -3 0
-8 -4 -11 -10z"/>
<path d="M5657 5122 c-26 -28 -22 -52 4 -25 12 11 20 26 17 33 -2 7 -9 5 -21
-8z"/>
<path d="M3630 4139 c0 -5 5 -7 10 -4 6 3 10 8 10 11 0 2 -4 4 -10 4 -5 0 -10
-5 -10 -11z"/>
<path d="M3690 4036 c0 -13 -3 -31 -6 -40 -5 -13 -2 -13 20 -3 14 7 26 19 26
27 0 13 -1 13 -11 0 -8 -12 -10 -9 -6 13 3 18 0 27 -9 27 -8 0 -14 -10 -14
-24z"/>
<path d="M2916 3775 c-11 -8 -15 -15 -9 -15 6 0 16 7 23 15 16 19 11 19 -14 0z"/>
<path d="M4060 3690 c0 -5 5 -10 10 -10 6 0 10 5 10 10 0 6 -4 10 -10 10 -5 0
-10 -4 -10 -10z"/>
<path d="M5855 3457 c-4 -10 -3 -23 4 -30 16 -16 23 -3 12 24 -8 22 -10 22
-16 6z"/>
<path d="M5774 3435 c-4 -9 0 -24 10 -33 10 -10 16 -12 16 -4 0 7 -5 12 -11
12 -8 0 -8 4 0 14 8 10 9 16 1 21 -5 3 -13 -1 -16 -10z"/>
<path d="M6977 3424 c18 -29 33 -31 26 -5 -3 11 -13 21 -23 24 -18 5 -18 3 -3
-19z"/>
<path d="M3065 3380 c-3 -5 -1 -10 4 -10 6 0 11 5 11 10 0 6 -2 10 -4 10 -3 0
-8 -4 -11 -10z"/>
<path d="M2996 3191 c-3 -5 1 -11 9 -14 9 -4 12 -1 8 9 -6 16 -10 17 -17 5z"/>
<path d="M3690 2944 c0 -8 5 -12 10 -9 6 4 8 11 5 16 -9 14 -15 11 -15 -7z"/>
<path d="M3720 2940 c0 -13 7 -20 19 -20 11 0 21 -6 24 -12 3 -8 9 -3 15 12
13 32 7 40 -29 40 -22 0 -29 -5 -29 -20z"/>
<path d="M3810 2950 c-10 -6 -7 -10 13 -16 34 -8 46 1 20 14 -11 6 -25 7 -33
2z"/>
<path d="M3955 2920 c4 -6 11 -8 16 -5 14 9 11 15 -7 15 -8 0 -12 -5 -9 -10z"/>
<path d="M3666 2889 c-3 -17 -6 -40 -6 -51 0 -17 2 -18 15 -4 8 8 15 26 15 40
0 14 6 26 13 26 8 0 7 4 -3 10 -23 15 -27 12 -34 -21z"/>
<path d="M4058 2903 c-2 -10 2 -28 10 -40 10 -17 11 -26 2 -44 -10 -17 -9 -23
1 -30 10 -7 11 -11 2 -16 -12 -9 -16 -26 -14 -58 2 -19 2 -19 12 -2 6 10 8 24
5 32 -2 7 2 16 10 19 7 3 13 0 11 -6 -1 -6 4 -13 11 -15 7 -3 12 4 12 20 0 13
3 27 6 30 10 10 12 77 2 77 -4 0 -8 -4 -8 -10 0 -5 -4 -10 -10 -10 -5 0 -10 9
-10 20 0 13 -5 18 -15 14 -8 -4 -15 -1 -15 6 0 9 11 10 38 5 45 -8 32 10 -15
20 -25 5 -32 3 -35 -12z m46 -78 c3 -8 1 -15 -4 -15 -6 0 -10 7 -10 15 0 8 2
15 4 15 2 0 6 -7 10 -15z"/>
<path d="M3720 2889 c0 -5 5 -7 10 -4 6 3 10 8 10 11 0 2 -4 4 -10 4 -5 0 -10
-5 -10 -11z"/>
<path d="M3990 2880 c0 -5 5 -10 10 -10 6 0 10 5 10 10 0 6 -4 10 -10 10 -5 0
-10 -4 -10 -10z"/>
<path d="M3756 2842 c-9 -16 43 -34 62 -21 15 9 15 10 -2 5 -11 -4 -26 0 -36
9 -10 9 -21 12 -24 7z"/>
<path d="M3660 2765 c0 -25 5 -45 10 -45 10 0 12 4 14 57 0 21 -4 33 -11 33
-9 0 -13 -16 -13 -45z"/>
<path d="M3773 2770 c0 -25 2 -35 4 -22 2 12 2 32 0 45 -2 12 -4 2 -4 -23z"/>
<path d="M3717 2773 c-4 -3 -7 -12 -7 -20 0 -11 5 -11 20 -3 11 6 20 15 20 20
0 11 -23 13 -33 3z"/>
<path d="M4160 2749 c0 -5 5 -7 10 -4 6 3 10 8 10 11 0 2 -4 4 -10 4 -5 0 -10
-5 -10 -11z"/>
<path d="M4108 2713 c7 -3 16 -2 19 1 4 3 -2 6 -13 5 -11 0 -14 -3 -6 -6z"/>
<path d="M4065 2675 c-3 -8 -7 -22 -10 -30 -2 -8 -1 -15 3 -15 14 0 32 24 32
42 0 22 -19 24 -25 3z"/>
<path d="M4120 2660 c0 -5 7 -10 15 -10 8 0 15 5 15 10 0 6 -7 10 -15 10 -8 0
-15 -4 -15 -10z"/>
<path d="M4130 2605 c0 -8 5 -15 11 -15 6 0 8 -9 4 -22 -5 -20 -4 -21 7 -7 7
9 16 16 20 15 19 -3 19 16 0 21 -12 3 -22 9 -22 14 0 5 -4 9 -10 9 -5 0 -10
-7 -10 -15z"/>
<path d="M4090 2606 c0 -2 7 -9 15 -16 13 -11 14 -10 9 4 -5 14 -24 23 -24 12z"/>
<path d="M3998 2244 c11 -5 10 -9 -1 -23 -11 -11 -13 -27 -8 -56 4 -25 9 -35
14 -27 5 7 6 20 3 30 -4 10 1 27 10 38 15 19 16 19 9 -1 -5 -15 -3 -17 5 -9
19 19 7 49 -20 51 -14 1 -19 0 -12 -3z"/>
<path d="M4137 2213 c-4 -3 -7 -11 -7 -17 0 -6 5 -5 12 2 6 6 9 14 7 17 -3 3
-9 2 -12 -2z"/>
<path d="M4060 2170 c0 -5 5 -10 11 -10 5 0 7 5 4 10 -3 6 -8 10 -11 10 -2 0
-4 -4 -4 -10z"/>
<path d="M4130 2150 c0 -5 5 -10 11 -10 5 0 7 5 4 10 -3 6 -8 10 -11 10 -2 0
-4 -4 -4 -10z"/>
<path d="M4195 2140 c3 -5 8 -10 11 -10 2 0 4 5 4 10 0 6 -5 10 -11 10 -5 0
-7 -4 -4 -10z"/>
<path d="M3980 2105 c-13 -15 -8 -19 22 -16 9 1 18 -6 21 -16 4 -15 5 -14 6 4
0 12 7 23 14 26 6 2 8 8 4 13 -4 5 -12 2 -16 -5 -6 -9 -11 -10 -15 -2 -10 15
-21 14 -36 -4z"/>
<path d="M4125 2081 c-3 -6 -15 -11 -26 -11 -10 0 -19 -4 -19 -10 0 -5 7 -10
16 -10 17 0 49 28 41 36 -3 3 -8 1 -12 -5z"/>
<path d="M4070 2030 c0 -5 10 -10 23 -10 18 0 19 2 7 10 -19 13 -30 13 -30 0z"/>
<path d="M4080 1976 c0 -2 8 -10 18 -17 15 -13 16 -12 3 4 -13 16 -21 21 -21
13z"/>
<path d="M4160 1950 c0 -5 5 -10 10 -10 6 0 10 5 10 10 0 6 -4 10 -10 10 -5 0
-10 -4 -10 -10z"/>
<path d="M4125 1920 c3 -5 8 -10 11 -10 2 0 4 5 4 10 0 6 -5 10 -11 10 -5 0
-7 -4 -4 -10z"/>
<path d="M4155 1910 c-3 -5 -1 -10 4 -10 6 0 11 5 11 10 0 6 -2 10 -4 10 -3 0
-8 -4 -11 -10z"/>
<path d="M5790 3110 c0 -5 5 -10 11 -10 5 0 7 5 4 10 -3 6 -8 10 -11 10 -2 0
-4 -4 -4 -10z"/>
<path d="M5495 2250 c-3 -6 1 -7 9 -4 18 7 21 14 7 14 -6 0 -13 -4 -16 -10z"/>
<path d="M5500 2825 c0 -8 5 -15 10 -15 6 0 10 7 10 15 0 8 -4 15 -10 15 -5 0
-10 -7 -10 -15z"/>
<path d="M6040 2688 c0 -25 40 -88 56 -88 8 0 14 7 14 15 0 8 -6 15 -12 15 -7
0 -23 17 -35 38 -13 22 -22 30 -23 20z"/>
<path d="M6032 2538 c3 -7 13 -15 22 -16 12 -3 17 1 14 10 -3 7 -13 15 -22 16
-12 3 -17 -1 -14 -10z"/>
<path d="M5888 2465 c-3 -14 -4 -25 -3 -25 2 0 10 11 19 25 13 20 14 25 2 25
-7 0 -16 -11 -18 -25z"/>
<path d="M5890 2411 c0 -5 6 -14 14 -20 7 -6 16 -25 20 -41 3 -17 10 -30 16
-30 18 0 11 59 -10 80 -21 21 -40 26 -40 11z"/>
<path d="M5930 2281 c0 -12 6 -21 15 -21 8 0 15 3 15 6 0 3 -7 12 -15 20 -13
14 -15 13 -15 -5z"/>
<path d="M5843 2173 c-7 -2 -13 -11 -13 -19 0 -8 6 -14 13 -14 6 0 12 -12 13
-27 0 -16 3 -45 6 -66 3 -21 2 -40 -2 -42 -11 -7 0 -45 12 -45 9 0 7 -22 -8
-67 -3 -10 4 -4 15 12 14 19 20 39 17 55 -3 14 -1 32 4 40 5 9 5 19 -2 27 -7
9 -7 17 2 28 7 8 9 15 4 15 -5 0 -16 5 -24 10 -13 8 -13 11 3 22 17 12 17 15
2 46 -17 32 -20 34 -42 25z"/>
<path d="M5655 2121 c-3 -5 -1 -12 4 -15 12 -8 41 3 41 15 0 12 -37 12 -45 0z"/>
<path d="M5907 2114 c-3 -3 -3 -12 0 -20 4 -11 7 -11 19 1 8 7 14 16 14 19 0
8 -25 8 -33 0z"/>
<path d="M5960 2111 c0 -5 5 -13 10 -16 6 -3 10 -2 10 4 0 5 -4 13 -10 16 -5
3 -10 2 -10 -4z"/>
<path d="M6100 2111 c0 -5 9 -11 21 -14 12 -3 18 -10 15 -15 -3 -6 1 -12 9
-15 15 -6 11 16 -8 41 -11 14 -37 16 -37 3z"/>
<path d="M5650 2070 c0 -5 7 -10 16 -10 8 0 12 5 9 10 -3 6 -10 10 -16 10 -5
0 -9 -4 -9 -10z"/>
<path d="M6197 2069 c7 -7 15 -10 18 -7 3 3 -2 9 -12 12 -14 6 -15 5 -6 -5z"/>
<path d="M6190 2040 c-8 -5 -12 -11 -9 -14 2 -3 11 -1 19 4 8 5 12 11 9 14 -2
3 -11 1 -19 -4z"/>
<path d="M6125 1979 c-10 -14 -1 -21 19 -13 9 3 13 10 10 15 -7 12 -21 11 -29
-2z"/>
<path d="M6183 1983 c9 -2 25 -2 35 0 9 3 1 5 -18 5 -19 0 -27 -2 -17 -5z"/>
<path d="M6217 1949 c7 -7 15 -10 18 -7 3 3 -2 9 -12 12 -14 6 -15 5 -6 -5z"/>
<path d="M6040 1909 c0 -12 3 -19 7 -16 10 11 43 -24 43 -45 0 -11 -4 -16 -10
-13 -5 3 -10 1 -10 -4 0 -21 21 -11 30 15 6 14 10 27 10 28 0 2 -16 16 -35 30
-35 27 -35 27 -35 5z"/>
<path d="M6166 1872 c-3 -6 -1 -14 5 -17 15 -10 25 3 12 16 -7 7 -13 7 -17 1z"/>
<path d="M6248 1863 c18 -8 31 -21 30 -29 -2 -7 2 -12 7 -11 9 1 9 16 0 45 -2
6 -19 12 -37 12 l-33 0 33 -17z"/>
<path d="M6170 1821 c0 -6 5 -13 10 -16 6 -3 10 1 10 9 0 9 -4 16 -10 16 -5 0
-10 -4 -10 -9z"/>
<path d="M5956 1811 c-4 -6 -14 -7 -23 -4 -10 4 -14 2 -9 -5 8 -14 65 -12 73
2 3 6 3 8 -2 4 -4 -4 -14 -3 -21 3 -8 6 -14 7 -18 0z"/>
<path d="M6220 1764 c0 -8 5 -12 10 -9 6 4 8 11 5 16 -9 14 -15 11 -15 -7z"/>
<path d="M6250 1736 c0 -2 9 -6 20 -9 11 -3 20 -1 20 4 0 5 -9 9 -20 9 -11 0
-20 -2 -20 -4z"/>
<path d="M5850 1694 c0 -8 5 -12 10 -9 6 4 8 11 5 16 -9 14 -15 11 -15 -7z"/>
<path d="M2235 2050 c3 -5 8 -10 11 -10 2 0 4 5 4 10 0 6 -5 10 -11 10 -5 0
-7 -4 -4 -10z"/>
<path d="M4995 1876 c-25 -18 -16 -60 14 -64 31 -5 54 23 41 48 -13 24 -35 31
-55 16z m30 -25 c3 -5 1 -12 -5 -16 -5 -3 -10 1 -10 9 0 18 6 21 15 7z"/>
<path d="M3720 5732 c0 -46 33 -93 85 -120 71 -38 71 -38 46 -3 -14 19 -29 30
-37 27 -9 -3 -28 17 -54 56 -29 45 -40 56 -40 40z"/>
<path d="M3760 5582 c0 -6 11 -24 25 -39 26 -28 26 -28 23 -4 -3 23 -48 64
-48 43z"/>
<path d="M6090 4240 c0 -5 5 -10 10 -10 6 0 10 5 10 10 0 6 -4 10 -10 10 -5 0
-10 -4 -10 -10z"/>
<path d="M6172 4116 c7 -8 17 -12 22 -9 4 3 2 9 -5 14 -22 13 -31 11 -17 -5z"/>
<path d="M3297 4000 c-14 -11 -29 -20 -34 -20 -4 0 -17 -7 -28 -16 -17 -13
-18 -16 -5 -24 29 -19 70 -12 80 14 5 13 14 27 19 31 13 7 15 35 2 35 -4 0
-20 -9 -34 -20z"/>
<path d="M3388 4008 c8 -8 9 -15 1 -25 -9 -10 -8 -13 4 -13 20 0 31 31 15 42
-20 12 -34 10 -20 -4z"/>
<path d="M3343 3982 c-9 -15 -8 -19 3 -19 8 0 14 9 14 19 0 10 -1 18 -3 18 -1
0 -7 -8 -14 -18z"/>
<path d="M7043 3857 c23 -19 22 -30 -2 -17 -26 13 -31 13 -25 -4 9 -22 244
-105 244 -85 0 4 -10 11 -22 14 -57 16 -157 59 -153 65 2 3 -10 14 -28 24 -18
10 -24 11 -14 3z"/>
<path d="M2210 3334 c0 -8 5 -12 10 -9 6 4 8 11 5 16 -9 14 -15 11 -15 -7z"/>
<path d="M2174 3322 c3 -5 -1 -12 -9 -16 -26 -9 -16 -26 14 -26 40 0 46 14 15
35 -15 9 -24 13 -20 7z"/>
<path d="M2246 3295 c-3 -8 -2 -15 3 -15 5 0 14 7 21 15 10 12 10 15 -3 15 -8
0 -17 -7 -21 -15z"/>
<path d="M1942 3215 c-12 -19 -20 -35 -17 -35 7 0 47 61 42 66 -2 3 -14 -11
-25 -31z"/>
<path d="M7192 3150 c0 -14 2 -19 5 -12 2 6 2 18 0 25 -3 6 -5 1 -5 -13z"/>
<path d="M1950 3018 c0 -7 -3 -31 -6 -53 -5 -27 -3 -37 3 -30 14 13 24 95 12
95 -5 0 -9 -6 -9 -12z"/>
<path d="M1826 3005 c-9 -26 -7 -32 5 -12 6 10 9 21 6 23 -2 3 -7 -2 -11 -11z"/>
<path d="M1898 2960 c-11 -12 -13 -22 -7 -26 12 -7 15 -5 23 24 9 26 7 26 -16
2z"/>
<path d="M1897 2913 c-11 -10 -8 -43 3 -43 6 0 10 11 10 25 0 26 -2 29 -13 18z"/>
<path d="M1865 2870 c-3 -5 -1 -10 4 -10 6 0 11 5 11 10 0 6 -2 10 -4 10 -3 0
-8 -4 -11 -10z"/>
<path d="M2240 2860 c8 -5 24 -9 35 -9 l20 0 -20 9 c-11 5 -27 9 -35 9 -13 1
-13 0 0 -9z"/>
<path d="M2344 2783 c7 -7 52 -20 136 -40 55 -13 5 12 -58 29 -75 20 -89 21
-78 11z"/>
<path d="M7975 2760 c-8 -13 15 -13 35 0 12 8 11 10 -7 10 -12 0 -25 -4 -28
-10z"/>
<path d="M7875 2750 c-17 -7 -15 -9 12 -9 17 -1 35 4 38 9 7 12 -22 12 -50 0z"/>
<path d="M2850 1976 c0 -2 7 -7 16 -10 8 -3 12 -2 9 4 -6 10 -25 14 -25 6z"/>
<path d="M2970 1910 c0 -5 4 -10 9 -10 6 0 13 5 16 10 3 6 -1 10 -9 10 -9 0
-16 -4 -16 -10z"/>
<path d="M2514 1871 c6 -10 96 -43 96 -36 0 7 -78 45 -90 45 -6 0 -9 -4 -6 -9z"/>
<path d="M2664 1824 c-18 -14 -18 -14 6 -3 31 14 36 19 24 19 -6 0 -19 -7 -30
-16z"/>
<path d="M2444 1711 c8 -12 71 -41 88 -41 7 0 -9 12 -37 25 -56 28 -58 29 -51
16z"/>
<path d="M2657 1693 c-4 -3 -7 -11 -7 -17 0 -6 5 -5 12 2 6 6 9 14 7 17 -3 3
-9 2 -12 -2z"/>
<path d="M7960 1596 c0 -8 -6 -17 -12 -19 -8 -3 -6 -6 5 -6 9 -1 17 1 17 3 0
2 3 11 6 20 3 9 1 16 -5 16 -6 0 -11 -6 -11 -14z"/>
<path d="M8015 1600 c3 -5 8 -10 11 -10 2 0 4 5 4 10 0 6 -5 10 -11 10 -5 0
-7 -4 -4 -10z"/>
<path d="M7777 1580 c-3 -12 -10 -19 -16 -15 -20 12 -33 -6 -15 -20 15 -10 25
-9 57 5 22 10 46 16 54 13 7 -3 13 0 13 7 0 8 -11 11 -32 8 -22 -4 -36 0 -44
10 -9 13 -12 12 -17 -8z"/>
<path d="M7700 1530 c0 -7 24 -20 36 -20 13 0 1 19 -16 23 -11 3 -20 2 -20 -3z"/>
<path d="M8225 1470 c-4 -6 -11 -8 -16 -5 -5 4 -9 1 -9 -4 0 -6 4 -11 9 -11 5
0 16 -15 25 -32 l16 -33 0 42 c0 41 -13 63 -25 43z"/>
<path d="M8000 1320 c0 -5 5 -10 10 -10 6 0 10 5 10 10 0 6 -4 10 -10 10 -5 0
-10 -4 -10 -10z"/>
<path d="M7550 1255 c-7 -8 -8 -15 -2 -15 5 0 15 7 22 15 7 8 8 15 2 15 -5 0
-15 -7 -22 -15z"/>
<path d="M3100 1243 c1 -11 26 -43 34 -43 11 0 6 21 -8 36 -16 15 -26 18 -26
7z"/>
<path d="M8155 1240 c3 -5 8 -10 11 -10 2 0 4 5 4 10 0 6 -5 10 -11 10 -5 0
-7 -4 -4 -10z"/>
<path d="M8264 1224 c3 -8 6 -20 6 -25 0 -5 6 -9 14 -9 19 0 9 37 -11 44 -11
5 -13 2 -9 -10z"/>
<path d="M7938 1213 c7 -3 16 -2 19 1 4 3 -2 6 -13 5 -11 0 -14 -3 -6 -6z"/>
<path d="M8102 1071 c4 -13 18 -16 19 -4 0 4 -5 9 -11 12 -7 2 -11 -2 -8 -8z"/>
<path d="M8136 1022 c-3 -5 11 -13 32 -16 58 -11 73 -17 67 -27 -8 -11 5 -12
23 0 19 11 -3 27 -51 35 -21 4 -44 9 -52 12 -7 3 -16 1 -19 -4z"/>
<path d="M8169 914 c-5 -15 -7 -30 -3 -33 8 -8 45 39 38 50 -10 17 -24 9 -35
-17z"/>
<path d="M7690 850 c0 -5 7 -10 16 -10 8 0 12 5 9 10 -3 6 -10 10 -16 10 -5 0
-9 -4 -9 -10z"/>
<path d="M8180 847 c0 -10 8 -14 25 -12 29 3 47 15 22 15 -8 0 -22 3 -31 6
-10 4 -16 1 -16 -9z"/>
<path d="M3710 781 c0 -8 111 -23 119 -16 2 3 -8 9 -23 15 -33 12 -96 13 -96
1z"/>
<path d="M2617 730 c6 -23 28 -27 36 -6 7 17 -1 26 -24 26 -12 0 -16 -6 -12
-20z"/>
<path d="M8090 730 c0 -5 5 -10 11 -10 5 0 7 5 4 10 -3 6 -8 10 -11 10 -2 0
-4 -4 -4 -10z"/>
<path d="M3015 720 c-3 -5 1 -10 9 -10 9 0 16 5 16 10 0 6 -4 10 -9 10 -6 0
-13 -4 -16 -10z"/>
<path d="M3116 713 c-6 -14 -5 -15 5 -6 7 7 10 15 7 18 -3 3 -9 -2 -12 -12z"/>
<path d="M2938 688 c2 -10 13 -18 23 -18 26 0 24 13 -5 26 -20 9 -23 9 -18 -8z"/>
<path d="M2912 677 c-17 -20 1 -37 35 -34 37 2 33 17 -4 17 -18 0 -24 4 -19
15 7 18 2 19 -12 2z"/>
<path d="M3097 683 c-4 -3 -7 -11 -7 -17 0 -6 5 -5 12 2 6 6 9 14 7 17 -3 3
-9 2 -12 -2z"/>
<path d="M3052 650 c0 -14 2 -19 5 -12 2 6 2 18 0 25 -3 6 -5 1 -5 -13z"/>
<path d="M2625 610 c3 -5 8 -10 11 -10 2 0 4 5 4 10 0 6 -5 10 -11 10 -5 0 -7
-4 -4 -10z"/>
<path d="M6556 607 c3 -10 9 -15 12 -12 3 3 0 11 -7 18 -10 9 -11 8 -5 -6z"/>
<path d="M6831 564 c0 -11 3 -14 6 -6 3 7 2 16 -1 19 -3 4 -6 -2 -5 -13z"/>
<path d="M7746 555 c4 -8 10 -15 15 -15 5 0 9 7 9 15 0 8 -7 15 -15 15 -9 0
-12 -6 -9 -15z"/>
<path d="M6850 536 c0 -3 14 -14 30 -26 17 -12 30 -17 30 -11 0 6 -13 17 -30
26 -16 9 -30 13 -30 11z"/>
<path d="M6825 520 c3 -5 11 -10 16 -10 6 0 7 5 4 10 -3 6 -11 10 -16 10 -6 0
-7 -4 -4 -10z"/>
<path d="M7715 490 c3 -5 8 -10 11 -10 2 0 4 5 4 10 0 6 -5 10 -11 10 -5 0 -7
-4 -4 -10z"/>
<path d="M5156 126 c-6 -32 -38 -57 -53 -42 -8 7 -29 -16 -37 -42 -7 -20 -9
-21 -23 -6 -14 13 -14 17 -2 25 11 7 10 9 -4 9 -10 0 -17 6 -15 12 4 12 -14
38 -27 38 -3 0 -4 -8 -1 -17 3 -10 6 -37 8 -61 l2 -43 40 3 c36 3 41 6 44 31
2 15 8 27 13 27 5 0 9 -12 10 -27 l1 -28 10 28 10 29 12 -23 c29 -58 76 -51
76 12 0 29 4 40 13 36 7 -3 13 5 13 19 2 28 -4 30 -34 8 -21 -15 -22 -14 -22
15 0 43 -26 40 -34 -3z"/>
<path d="M4852 95 c-7 -8 -12 -18 -11 -22 1 -4 1 -18 0 -30 -1 -26 -21 -32
-21 -6 0 9 -3 13 -7 10 -3 -4 -13 2 -20 13 -8 11 -18 18 -23 15 -5 -3 -21 2
-35 11 -14 9 -27 15 -29 13 -4 -4 -9 -64 -7 -86 1 -10 29 -13 109 -12 59 1
101 3 95 6 -7 2 -15 27 -19 54 -7 52 -11 57 -32 34z"/>
<path d="M5270 95 c0 -8 5 -15 10 -15 6 0 10 7 10 15 0 8 -4 15 -10 15 -5 0
-10 -7 -10 -15z"/>
<path d="M4900 55 c0 -19 5 -35 11 -35 7 0 9 10 7 25 -6 30 8 34 17 4 4 -11 9
-18 13 -15 9 9 -20 56 -35 56 -8 0 -13 -13 -13 -35z"/>
<path d="M7090 50 c20 -39 44 -59 56 -47 7 7 -56 87 -68 87 -5 0 1 -18 12 -40z"/>
<path d="M4470 35 c0 -19 4 -35 10 -35 5 0 9 16 7 35 -3 45 -17 45 -17 0z"/>
<path d="M4605 50 c3 -5 8 -10 11 -10 2 0 4 5 4 10 0 6 -5 10 -11 10 -5 0 -7
-4 -4 -10z"/>
<path d="M4623 34 c-19 -20 -16 -34 7 -34 11 0 20 2 20 4 0 2 3 12 7 22 4 11
3 15 -4 11 -6 -4 -13 -3 -15 2 -1 5 -9 3 -15 -5z"/>
<path d="M4381 21 c-10 -6 -10 -10 -1 -16 13 -8 24 -1 19 14 -3 6 -10 7 -18 2z"/>
<path d="M4525 10 c-3 -5 -1 -10 4 -10 6 0 11 5 11 10 0 6 -2 10 -4 10 -3 0
-8 -4 -11 -10z"/>
<path d="M4930 10 c0 -5 5 -10 10 -10 6 0 10 5 10 10 0 6 -4 10 -10 10 -5 0
-10 -4 -10 -10z"/>
</g>
</svg>
